<svg width="52" height="52" viewBox="0 0 52 52" fill="none" xmlns="http://www.w3.org/2000/svg">
<g clip-path="url(#clip0)">
<path d="M33.0551 47.3063L29.9472 50.4142C28.9664 51.395 27.376 51.395 26.3952 50.4142C25.4144 49.4334 25.4144 47.8431 26.3952 46.8623L29.5031 43.7543C30.4839 42.7735 32.0743 42.7735 33.0551 43.7543C34.036 44.7351 34.036 46.3255 33.0551 47.3063Z" fill="#B38A82"/>
<path opacity="0.1" d="M33.0551 47.3063L29.9472 50.4142C28.9664 51.395 27.376 51.395 26.3952 50.4142C25.4144 49.4334 25.4144 47.8431 26.3952 46.8623L29.5031 43.7543C30.4839 42.7735 32.0743 42.7735 33.0551 43.7543C34.036 44.7351 34.036 46.3255 33.0551 47.3063Z" fill="black"/>
<path d="M27.1391 47.3063L24.0311 50.4142C23.0503 51.395 21.46 51.395 20.4792 50.4142C19.4984 49.4334 19.4984 47.8431 20.4792 46.8623L23.5871 43.7543C24.5679 42.7735 26.1583 42.7735 27.1391 43.7543C28.1199 44.7351 28.1199 46.3255 27.1391 47.3063Z" fill="#B38A82"/>
<path d="M44.1002 30.8722C47.7354 30.8722 50.6823 33.8191 50.6823 37.4543C50.6823 41.0895 47.7354 44.0365 44.1002 44.0365H35.9429C33.672 44.0365 31.8313 42.1956 31.8313 39.9248C31.8313 37.9372 33.2416 36.279 35.1163 35.8964C34.739 35.3749 34.5161 34.7343 34.5161 34.0415C34.5161 32.2912 35.9349 30.8723 37.6853 30.8723L44.1002 30.8722V30.8882V30.8722Z" fill="#D9809C"/>
<path opacity="0.1" d="M44.1002 44.0365C44.751 44.0365 45.3791 43.9405 45.9728 43.7646C38.3549 42.7766 37.3319 32.8307 38.9347 30.8722H37.6851C35.9348 30.8722 34.5159 32.291 34.5159 34.0414C34.5159 34.7342 34.7389 35.3747 35.1161 35.8963C33.2416 36.2789 31.8312 37.937 31.8312 39.9247C31.8312 42.1956 33.672 44.0363 35.9428 44.0363H44.1001V44.0365H44.1002Z" fill="black"/>
<path d="M23.1933 10.7879C20.1347 10.339 17.3756 9.14114 14.9918 7.22692C12.6566 5.35198 11.4525 3.38828 11.1391 2.8311C10.4159 1.54552 8.78729 1.08961 7.50151 1.81282C6.21583 2.53622 5.75982 4.16476 6.48312 5.45044C6.91835 6.22402 8.37845 8.59446 11.0873 10.9266C11.3887 11.1862 11.196 11.6811 10.7984 11.6674C8.85116 11.6004 6.91235 11.2217 5.29331 10.39C3.98684 9.719 2.3528 10.225 1.67898 11.5301C1.00215 12.8409 1.51624 14.4524 2.82721 15.1291C5.73643 16.6307 8.89574 17.0276 11.4229 17.0276C12.0082 17.0276 12.5598 17.0063 13.0662 16.9726C15.456 16.813 17.8927 16.2999 19.8879 15.5575C20.7117 15.774 21.5764 15.9527 22.4851 16.0833C22.6141 16.1018 22.7421 16.1109 22.8687 16.1109C24.1698 16.1109 25.3081 15.1592 25.5068 13.8367C25.7255 12.3812 24.6495 11.0017 23.1933 10.7879Z" fill="#E4A2B7"/>
<path d="M26.843 47.2645C38.7181 47.2645 48.3448 38.5356 48.3448 27.7679C48.3448 17.0002 38.7181 8.2713 26.843 8.2713C14.9679 8.2713 5.34123 17.0002 5.34123 27.7679C5.34123 38.5356 14.9679 47.2645 26.843 47.2645Z" fill="#E4A2B7"/>
<path d="M31.8929 36.5282C31.4789 36.5282 31.1432 36.1926 31.1432 35.7785V33.9529C31.1432 33.5388 31.4789 33.2032 31.8929 33.2032C32.3069 33.2032 32.6426 33.5388 32.6426 33.9529V35.7785C32.6426 36.1925 32.3069 36.5282 31.8929 36.5282Z" fill="#DD8EAB"/>
<path d="M37.0744 36.5282C36.6604 36.5282 36.3247 36.1926 36.3247 35.7785V33.9529C36.3247 33.5388 36.6604 33.2032 37.0744 33.2032C37.4885 33.2032 37.8241 33.5388 37.8241 33.9529V35.7785C37.8241 36.1925 37.4885 36.5282 37.0744 36.5282Z" fill="#DD8EAB"/>
<path d="M26.7113 36.5283C26.2973 36.5283 25.9616 36.1926 25.9616 35.7786V33.9529C25.9616 33.5389 26.2973 33.2032 26.7113 33.2032C27.1254 33.2032 27.461 33.5389 27.461 33.9529V35.7786C27.461 36.1925 27.1255 36.5283 26.7113 36.5283Z" fill="#DD8EAB"/>
<path d="M29.3021 40.8907C28.8881 40.8907 28.5524 40.555 28.5524 40.141V38.3153C28.5524 37.9013 28.8881 37.5656 29.3021 37.5656C29.7162 37.5656 30.0518 37.9013 30.0518 38.3153V40.141C30.0519 40.5549 29.7162 40.8907 29.3021 40.8907Z" fill="#DD8EAB"/>
<path d="M34.4838 40.8907C34.0697 40.8907 33.7341 40.555 33.7341 40.141V38.3153C33.7341 37.9013 34.0697 37.5656 34.4838 37.5656C34.8978 37.5656 35.2335 37.9013 35.2335 38.3153V40.141C35.2335 40.5549 34.8978 40.8907 34.4838 40.8907Z" fill="#DD8EAB"/>
<path d="M31.8929 22.0712C34.0993 22.0712 36.3509 23.0356 35.8877 25.722C35.573 27.5477 33.9384 28.7993 32.8601 29.4406C32.2635 29.7953 31.5223 29.7953 30.9258 29.4406C29.8474 28.7993 28.2128 27.5478 27.8981 25.722C27.435 23.0355 29.6866 22.0712 31.8929 22.0712Z" fill="#F7D88B"/>
<path d="M29.9944 22.3452C28.5923 22.7938 27.572 23.8307 27.8982 25.722C28.213 27.5478 29.8475 28.7994 30.9259 29.4406C31.5181 29.7928 32.2525 29.795 32.8467 29.448C30.6466 28.1202 29.0817 23.9602 29.9944 22.3452Z" fill="#F4CF7A"/>
<path d="M22.1447 27.7024C24.1312 27.7024 25.7416 26.42 25.7416 24.8381C25.7416 23.2562 24.1312 21.9738 22.1447 21.9738C20.1582 21.9738 18.5479 23.2562 18.5479 24.8381C18.5479 26.42 20.1582 27.7024 22.1447 27.7024Z" fill="#F27281"/>
<path d="M41.6413 27.7024C43.6278 27.7024 45.2381 26.42 45.2381 24.838C45.2381 23.2561 43.6278 21.9737 41.6413 21.9737C39.6548 21.9737 38.0444 23.2561 38.0444 24.838C38.0444 26.42 39.6548 27.7024 41.6413 27.7024Z" fill="#F27281"/>
<path d="M22.9669 8.71313C12.9419 10.3681 5.34097 18.3253 5.34097 27.8928C5.34097 38.6605 14.9679 47.3893 26.8433 47.3893C31.5699 47.3893 35.9395 46.0054 39.4885 43.6614C12.7493 47.3893 12.588 17.63 22.9669 8.71313Z" fill="#DD8EAB"/>
<path d="M13.6491 30.8722C17.2843 30.8722 20.2312 33.8191 20.2312 37.4543C20.2312 41.0895 17.2843 44.0365 13.6491 44.0365H5.49183C3.22096 44.0365 1.3802 42.1956 1.3802 39.9248C1.3802 37.9372 2.79053 36.279 4.66517 35.8964C4.28792 35.3749 4.06501 34.7343 4.06501 34.0415C4.06501 32.2912 5.48384 30.8723 7.23423 30.8723L13.6491 30.8722V30.8882V30.8722Z" fill="#D9809C"/>
<path d="M13.6491 44.0365C14.2999 44.0365 14.9279 43.9405 15.5217 43.7646C7.90379 42.7766 6.8808 32.8307 8.48355 30.8722H7.23396C5.48367 30.8722 4.06474 32.291 4.06474 34.0414C4.06474 34.7342 4.28775 35.3747 4.665 35.8963C2.79046 36.2789 1.38004 37.937 1.38004 39.9247C1.38004 42.1956 3.22089 44.0363 5.49167 44.0363H13.649V44.0365H13.6491Z" fill="#D17597"/>
<path d="M31.8929 21.3216C29.4926 21.3216 28.3321 22.2738 27.854 22.8415C27.3945 23.3868 26.901 24.3513 27.1592 25.8494C27.3542 26.9797 28.0993 28.6321 30.5426 30.085C30.9591 30.3327 31.4259 30.4566 31.8929 30.4566C32.3598 30.4566 32.8268 30.3327 33.2433 30.085C35.6866 28.632 36.4318 26.9797 36.6266 25.8494C36.8848 24.3515 36.3913 23.3869 35.932 22.8416C35.4539 22.2738 34.2933 21.3216 31.8929 21.3216ZM35.149 25.5946C34.8795 27.1578 33.3592 28.2716 32.477 28.7961C32.1168 29.0104 31.6693 29.0105 31.309 28.7961C30.4268 28.2715 28.9064 27.1579 28.6369 25.5946C28.5064 24.8376 28.6254 24.2531 29.0008 23.8075C29.5289 23.1806 30.583 22.8211 31.893 22.8211C33.203 22.8211 34.2571 23.1806 34.7853 23.8075C35.1605 24.2531 35.2795 24.8376 35.149 25.5946ZM38.5825 21.7213C38.5825 21.1907 39.0142 20.759 39.5448 20.759C40.0754 20.759 40.507 21.1907 40.507 21.7213C40.507 22.1353 40.8427 22.471 41.2567 22.471C41.6707 22.471 42.0064 22.1353 42.0064 21.7213C42.0064 20.364 40.9021 19.2595 39.5447 19.2595C38.1873 19.2595 37.0829 20.3639 37.0829 21.7213C37.0829 22.1353 37.4186 22.471 37.8326 22.471C38.2466 22.471 38.5825 22.1353 38.5825 21.7213ZM21.7795 21.7213C21.7795 22.1353 22.1152 22.471 22.5292 22.471C22.9433 22.471 23.2789 22.1353 23.2789 21.7213C23.2789 21.1907 23.7106 20.759 24.2412 20.759C24.7718 20.759 25.2034 21.1907 25.2034 21.7213C25.2034 22.1353 25.5391 22.471 25.9531 22.471C26.3672 22.471 26.7028 22.1353 26.7028 21.7213C26.7028 20.364 25.5986 19.2595 24.2411 19.2595C22.8837 19.2595 21.7795 20.364 21.7795 21.7213ZM48.6904 31.7396C48.9581 30.4772 49.0951 29.1888 49.0951 27.8929C49.0951 22.471 46.7711 17.3778 42.5511 13.5514C38.3517 9.74378 32.7732 7.64683 26.8431 7.64683C24.2252 7.64683 21.625 8.07126 19.183 8.88323C17.8556 8.31166 16.6037 7.56007 15.4605 6.64194C13.2298 4.85087 12.0886 2.99072 11.7919 2.46314C10.8673 0.819306 8.77741 0.234443 7.13328 1.15897C5.48945 2.08379 4.90428 4.17374 5.82911 5.81768C6.29852 6.65204 7.5817 8.7066 9.88916 10.8594C8.26022 10.7107 6.80371 10.3229 5.63519 9.72279C3.94947 8.85714 1.87572 9.51327 1.01227 11.1857C0.593037 11.9977 0.515069 12.9243 0.792856 13.7949C1.07064 14.6656 1.6708 15.3757 2.48277 15.7948C4.05333 16.6055 5.81791 17.1722 7.74143 17.4864C5.69826 20.5841 4.59111 24.1584 4.59111 27.8927C4.59111 28.9116 4.67608 29.9341 4.84271 30.9396C3.91449 31.6569 3.31503 32.78 3.31503 34.0413C3.31503 34.5309 3.40459 35.0081 3.57782 35.455C1.82464 36.2082 0.630222 37.9578 0.630222 39.9246C0.630222 42.6052 2.81104 44.786 5.49165 44.786H13.6489C13.9349 44.786 14.2165 44.7679 14.494 44.7359C16.0455 45.6795 17.7049 46.4348 19.4391 46.9915C19.1489 47.4857 18.9938 48.0499 18.9938 48.6382C18.9938 49.5092 19.333 50.3283 19.949 50.9443C20.5847 51.5801 21.4199 51.8981 22.2551 51.8981C23.0904 51.8981 23.9254 51.5802 24.5612 50.9443L25.3076 50.1979C25.4556 50.4698 25.6424 50.7216 25.8652 50.9443C26.4811 51.5603 27.3001 51.8996 28.1713 51.8996C29.0424 51.8996 29.8613 51.5603 30.4774 50.9443L33.5854 47.8363C33.8304 47.5913 34.0307 47.3141 34.1853 47.0099C34.4337 46.931 34.6813 46.8491 34.9271 46.7618C35.3172 46.6234 35.5213 46.1948 35.3829 45.8045C35.2443 45.4144 34.8158 45.2104 34.4256 45.3487C32.0788 46.1815 29.6023 46.6138 27.0615 46.6373C27.0589 46.6373 27.0562 46.6374 27.0536 46.6374C26.9834 46.638 26.9134 46.6396 26.8432 46.6396C24.8354 46.6396 22.8639 46.3815 20.9754 45.8795C20.9581 45.874 20.9406 45.8694 20.9229 45.8652C19.4083 45.4586 17.9475 44.8945 16.5646 44.1799C19.1607 43.0501 20.9809 40.4613 20.9809 37.4542C20.9809 33.4115 17.6919 30.1223 13.649 30.1223H7.23404C6.89577 30.1223 6.56751 30.1654 6.25414 30.2464C6.14608 29.467 6.0906 28.6788 6.0906 27.8927C6.0906 24.1014 7.3344 20.4846 9.61147 17.4334C9.65425 17.3899 9.69164 17.3411 9.72293 17.288C10.8869 15.7598 12.3107 14.3758 13.9709 13.1881C14.3077 12.9472 14.3853 12.4789 14.1444 12.1422C13.9035 11.8054 13.4352 11.7278 13.0986 11.9687C11.4098 13.1769 9.94594 14.574 8.73143 16.1146C6.66917 15.8585 4.80023 15.3034 3.17059 14.4624C2.71447 14.227 2.37741 13.828 2.22138 13.339C2.06534 12.85 2.10912 12.3296 2.34452 11.8735C2.82953 10.9342 3.99835 10.5675 4.95007 11.0564C6.55561 11.8811 8.51442 12.3385 10.7719 12.4162C11.2764 12.4325 11.719 12.1415 11.9024 11.6723C12.0859 11.2028 11.9577 10.6869 11.5757 10.358C8.92705 8.07756 7.50783 5.74351 7.13588 5.08247C6.61649 4.15915 6.94505 2.98533 7.86838 2.46584C8.7918 1.94645 9.96553 2.27501 10.4851 3.19834C10.8151 3.785 12.0814 5.85166 14.5218 7.81116C15.3811 8.50118 16.2973 9.10504 17.2577 9.61913C16.9391 9.75737 16.623 9.90052 16.312 10.0528C15.9402 10.2348 15.7863 10.6838 15.9684 11.0557C16.1505 11.4277 16.5996 11.5815 16.9714 11.3994C19.9824 9.92541 23.3959 9.14602 26.8432 9.14602C38.2862 9.14602 47.5956 17.5558 47.5956 27.8927C47.5956 31.1436 46.66 34.3462 44.8896 37.154C43.1661 39.8881 40.6873 42.2068 37.7215 43.8597C37.3599 44.0613 37.23 44.5179 37.4317 44.8795C37.5688 45.1256 37.8241 45.2645 38.0872 45.2645C38.2106 45.2645 38.3359 45.2339 38.4514 45.1695C38.6742 45.0454 38.8936 44.9169 39.1111 44.7859H44.1C48.1428 44.7859 51.432 41.4969 51.432 37.454C51.4321 35.2269 50.4156 33.127 48.6904 31.7396ZM27.3721 48.1335C28.8159 48.103 30.2395 47.9467 31.6328 47.6685L29.4171 49.8842C29.0844 50.2169 28.6419 50.4002 28.1713 50.4002C27.7007 50.4002 27.2583 50.2169 26.9255 49.8841C26.6935 49.6522 26.5332 49.3624 26.4582 49.0475L27.3721 48.1335ZM20.9769 47.4281C22.3813 47.7762 23.8262 47.9983 25.295 48.0901L23.501 49.8842C23.1683 50.2169 22.7258 50.4002 22.2552 50.4002C21.7846 50.4002 21.3422 50.2169 21.0094 49.8841C20.6767 49.5512 20.4933 49.1089 20.4933 48.6383C20.4932 48.1838 20.6656 47.7565 20.9769 47.4281ZM7.23404 31.6219H13.4942C13.5912 31.6423 13.6976 31.6429 13.795 31.6237C16.9438 31.7016 19.4814 34.2872 19.4814 37.4543C19.4814 40.6703 16.8649 43.2868 13.6489 43.2868H5.49185C3.6381 43.2868 2.12981 41.7787 2.12981 39.9247C2.12981 38.3566 3.22717 36.989 4.74855 36.646H8.45104C8.86507 36.646 9.20074 36.3103 9.20074 35.8963C9.20074 35.4822 8.86507 35.1466 8.45104 35.1466H5.08231C4.90678 34.8065 4.81472 34.4305 4.81472 34.0414C4.81462 32.7074 5.89998 31.6219 7.23404 31.6219ZM44.1002 43.2868H41.2965C43.2343 41.7785 44.8859 39.9721 46.1581 37.954C47.0675 36.5114 47.7738 34.9719 48.2657 33.3759C49.3232 34.4568 49.9325 35.9174 49.9325 37.4543C49.9326 40.6704 47.3162 43.2868 44.1002 43.2868Z" fill="black"/>
</g>
<defs>
<clipPath id="clip0">
<rect width="51.1793" height="51.1793" fill="white" transform="translate(0.440933 0.720398)"/>
</clipPath>
</defs>
</svg>
