<svg width="53" height="52" viewBox="0 0 53 52" fill="none" xmlns="http://www.w3.org/2000/svg">
<g clip-path="url(#clip0)">
<rect width="51.1793" height="51.1793" transform="translate(0.827148 0.720398)" fill="white"/>
<path d="M48.0208 23.0878C48.0208 23.0878 50.7467 13.3817 46.2865 2.37019C46.1881 2.12313 45.9976 1.92395 45.7551 1.81466C45.5127 1.70538 45.2373 1.69454 44.987 1.78443C42.6749 2.61409 36.3905 5.49393 32.67 11.2276C29.1064 10.226 26.4175 10.276 26.4175 10.276C26.4175 10.276 23.7286 10.226 20.162 11.2276C16.4425 5.49393 10.1571 2.61409 7.84502 1.78443C7.59474 1.69454 7.31933 1.70538 7.07689 1.81466C6.83445 1.92395 6.64394 2.12313 6.54555 2.37019C2.08835 13.3817 4.81425 23.0878 4.81425 23.0878L4.85923 23.0338C2.64812 25.6968 1.82745 26.7004 1.82745 26.7004C1.82745 50.9006 26.4175 50.9006 26.4175 50.9006C26.4175 50.9006 51.0076 50.9006 51.0076 26.7034C51.0076 26.7004 50.1979 25.7108 48.0208 23.0878Z" fill="#C9C9C9"/>
<path d="M15.4213 13.0884C13.588 9.24291 11.112 6.40105 9.2418 4.61877C7.38855 10.0226 7.47352 16.0342 7.7544 19.5527L8.63305 18.4982C10.5111 16.2589 12.8194 14.4194 15.4213 13.0884Z" fill="#EF7878"/>
<path d="M7.84434 1.78376C7.59406 1.69387 7.31864 1.70471 7.0762 1.81399C6.83376 1.92327 6.64325 2.12246 6.54486 2.36952C6.54486 2.36952 12.0686 6.04603 15.4213 13.0882C16.936 12.3089 18.5258 11.6853 20.1664 11.2269C16.4419 5.49326 10.1564 2.61342 7.84434 1.78376Z" fill="#7C7C7C"/>
<path d="M44.9893 1.78376C45.2396 1.69387 45.515 1.70471 45.7574 1.81399C45.9999 1.92327 46.1904 2.12246 46.2888 2.36952C46.2888 2.36952 40.768 6.04603 37.4204 13.0882C35.9057 12.3089 34.3158 11.6853 32.6753 11.2269C36.3918 5.49326 42.6773 2.61342 44.9893 1.78376Z" fill="#7C7C7C"/>
<path d="M23.9278 19.6777L24.6845 10.3694C22.7988 10.5599 20.939 10.9517 19.1367 11.538L22.7912 19.8686C22.8441 19.9902 22.9361 20.0906 23.0526 20.1538C23.1691 20.217 23.3034 20.2394 23.4342 20.2175C23.5649 20.1955 23.6845 20.1304 23.774 20.0326C23.8634 19.9348 23.9176 19.8098 23.9278 19.6777Z" fill="#919191"/>
<path d="M26.4168 47.9162C26.4168 47.9162 3.78899 47.9162 1.94773 26.5538L1.82678 26.6998C1.82678 50.9 26.4168 50.9 26.4168 50.9C26.4168 50.9 51.0069 50.9 51.0069 26.7028L50.8879 26.5568C49.0447 47.9152 26.4168 47.9162 26.4168 47.9162Z" fill="#AFAFAF"/>
<path d="M7.37046 29.4356C5.7931 29.9724 3.72594 30.7621 2.16357 31.3738C2.40676 33.0287 2.81805 34.6545 3.39108 36.2259L7.98022 30.2943C8.05286 30.201 8.0935 30.0868 8.09611 29.9686C8.09872 29.8504 8.06316 29.7345 7.99472 29.6381C7.92627 29.5418 7.82857 29.47 7.71612 29.4335C7.60368 29.397 7.48246 29.3978 7.37046 29.4356Z" fill="#919191"/>
<path d="M7.05152 42.4964L10.736 37.7333C10.8088 37.6398 10.8495 37.5253 10.852 37.4069C10.8544 37.2884 10.8185 37.1723 10.7496 37.0759C10.6808 36.9795 10.5826 36.9079 10.4697 36.8718C10.3568 36.8357 10.2353 36.8371 10.1233 36.8757C8.43896 37.4484 6.19686 38.3101 4.60651 38.9348C5.29004 40.2071 6.10986 41.4013 7.05152 42.4964Z" fill="#919191"/>
<path d="M45.4631 29.4356C47.0404 29.9724 49.1066 30.7621 50.67 31.3738C50.4268 33.0287 50.0155 34.6545 49.4425 36.2259L44.8533 30.2943C44.7807 30.201 44.7401 30.0868 44.7374 29.9686C44.7348 29.8504 44.7704 29.7345 44.8388 29.6381C44.9073 29.5418 45.005 29.47 45.1174 29.4335C45.2299 29.397 45.3511 29.3978 45.4631 29.4356Z" fill="#919191"/>
<path d="M45.782 42.4963L42.0975 37.7332C42.0253 37.6399 41.985 37.5259 41.9826 37.4079C41.9802 37.2899 42.0158 37.1744 42.0842 37.0782C42.1525 36.982 42.25 36.9104 42.3622 36.8739C42.4744 36.8375 42.5954 36.838 42.7072 36.8756C44.3915 37.4483 46.6336 38.31 48.224 38.9347C47.5414 40.2069 46.7226 41.4011 45.782 42.4963Z" fill="#919191"/>
<path d="M17.0926 18.9919C17.1873 19.0814 17.3086 19.1375 17.4381 19.1518C17.5676 19.1661 17.6983 19.1379 17.8103 19.0714C17.9223 19.0049 18.0097 18.9037 18.0591 18.7831C18.1085 18.6626 18.1173 18.5292 18.0842 18.4032L16.3788 12.6155C15.1282 13.1912 13.9316 13.8777 12.8033 14.6667L17.0926 18.9919Z" fill="#919191"/>
<path d="M35.741 18.9919L40.0302 14.6687C38.902 13.879 37.7054 13.1919 36.4547 12.6155L34.7494 18.4032C34.7163 18.5292 34.7251 18.6626 34.7745 18.7831C34.8239 18.9037 34.9112 19.0049 35.0232 19.0714C35.1353 19.1379 35.2659 19.1661 35.3954 19.1518C35.5249 19.1375 35.6462 19.0814 35.741 18.9919Z" fill="#919191"/>
<path d="M30.0424 19.8686L33.6969 11.538C31.8947 10.9516 30.0348 10.5598 28.1492 10.3694L28.9059 19.6777C28.9161 19.8098 28.9702 19.9348 29.0597 20.0326C29.1491 20.1304 29.2688 20.1955 29.3995 20.2175C29.5302 20.2394 29.6645 20.217 29.7811 20.1538C29.8976 20.0906 29.9896 19.9902 30.0424 19.8686Z" fill="#919191"/>
<path d="M37.4174 13.0883C39.2456 9.2429 41.7216 6.40105 43.5919 4.61377C45.4451 10.0226 45.3601 16.0342 45.0793 19.5527L44.2006 18.4982C42.3242 16.2593 40.0176 14.4197 37.4174 13.0883Z" fill="#EF7878"/>
<path d="M26.4298 36.3688C26.4298 36.3688 23.9628 39.8454 19.5426 38.7869V38.9518C19.5426 38.9518 20.5172 43.6179 26.3528 43.6179C32.1885 43.6179 33.1621 38.9518 33.1621 38.9518V38.8228C28.8398 39.7645 26.4298 36.3688 26.4298 36.3688Z" fill="#AA0C18"/>
<path d="M19.2268 27.1655C19.227 26.6471 19.0734 26.1403 18.7855 25.7091C18.4977 25.278 18.0884 24.9419 17.6095 24.7434C17.1306 24.5448 16.6036 24.4928 16.0951 24.5938C15.5866 24.6948 15.1195 24.9444 14.7529 25.3109C14.3862 25.6774 14.1365 26.1444 14.0353 26.6528C13.9341 27.1613 13.9859 27.6883 14.1843 28.1673C14.3826 28.6462 14.7186 29.0556 15.1496 29.3437C15.5806 29.6317 16.0874 29.7855 16.6058 29.7855C17.3005 29.7847 17.9665 29.5084 18.4579 29.0173C18.9492 28.5261 19.2257 27.8602 19.2268 27.1655Z" fill="black"/>
<path d="M36.2548 24.5446C35.7364 24.5444 35.2296 24.6979 34.7984 24.9858C34.3673 25.2737 34.0312 25.6829 33.8327 26.1618C33.6341 26.6407 33.5821 27.1677 33.6831 27.6762C33.7841 28.1847 34.0337 28.6518 34.4002 29.0184C34.7667 29.3851 35.2337 29.6348 35.7421 29.736C36.2506 29.8372 36.7776 29.7854 37.2566 29.587C37.7356 29.3887 38.145 29.0528 38.433 28.6217C38.721 28.1907 38.8748 27.6839 38.8748 27.1655C38.874 26.4708 38.5977 25.8048 38.1066 25.3134C37.6155 24.8221 36.9495 24.5456 36.2548 24.5446Z" fill="black"/>
<path d="M34.1496 37.4724C30.4182 38.9718 28.0821 36.7637 27.4294 36.017V35.5692C27.7622 35.3852 28.2041 35.1293 28.6499 34.8315C30.0873 33.8689 30.757 33.0182 30.757 32.1526C30.757 31.5748 30.5381 30.5402 29.0727 30.0964C28.316 29.8675 27.3554 29.8365 26.4298 29.8365C25.5041 29.8365 24.5435 29.8675 23.7878 30.0964C22.3214 30.5402 22.1025 31.5748 22.1025 32.1526C22.1025 33.0182 22.7722 33.8689 24.2107 34.8315C24.6565 35.1313 25.0983 35.3862 25.4302 35.5692V36.016C24.7734 36.7677 22.4384 38.9728 18.7099 37.4724C18.5874 37.4196 18.4557 37.3918 18.3223 37.3907C18.189 37.3896 18.0567 37.4152 17.9334 37.466C17.8101 37.5168 17.6982 37.5917 17.6043 37.6864C17.5104 37.7811 17.4364 37.8936 17.3866 38.0173C17.3369 38.141 17.3124 38.2735 17.3146 38.4068C17.3168 38.5401 17.3457 38.6717 17.3995 38.7937C17.4533 38.9157 17.531 39.0257 17.628 39.1173C17.725 39.2088 17.8393 39.28 17.9642 39.3267C18.2081 39.4266 18.448 39.5106 18.6829 39.5845C18.9689 40.44 19.4131 41.2341 19.9924 41.9256C21.017 43.1531 22.9522 44.6175 26.3528 44.6175C29.7534 44.6175 31.6886 43.1531 32.7142 41.9256C33.2807 41.2481 33.7184 40.4726 34.0057 39.6375C34.2956 39.5529 34.5928 39.4493 34.8973 39.3267C35.1392 39.2249 35.3314 39.032 35.4323 38.7898C35.5332 38.5476 35.5349 38.2754 35.4368 38.0319C35.3388 37.7885 35.149 37.5934 34.9083 37.4887C34.6677 37.384 34.3956 37.3782 34.1507 37.4724H34.1496ZM26.3528 42.6183C23.2341 42.6183 21.7387 41.1189 21.0549 39.9844H21.1879C22.4575 39.9845 23.7057 39.6578 24.8124 39.0358C25.3984 38.7069 25.942 38.3074 26.4308 37.8462C26.92 38.3074 27.4638 38.7069 28.0501 39.0358C29.1492 39.6535 30.3879 39.98 31.6487 39.9844C31.495 40.2398 31.3201 40.4819 31.1259 40.7081C30.0303 41.9766 28.426 42.6183 26.3528 42.6183Z" fill="black"/>
<path d="M11.16 32.1986L14.5216 32.7074C14.7845 32.7471 15.0524 32.6808 15.2663 32.5231C15.4803 32.3653 15.6229 32.1291 15.6626 31.8662C15.7024 31.6033 15.6361 31.3355 15.4784 31.1215C15.3206 30.9075 15.0843 30.7649 14.8215 30.7252L11.4558 30.2154C11.193 30.1756 10.9251 30.2419 10.7111 30.3996C10.4971 30.5574 10.3546 30.7937 10.3148 31.0565C10.275 31.3194 10.3413 31.5873 10.4991 31.8013C10.6568 32.0152 10.8931 32.1578 11.156 32.1976L11.16 32.1986Z" fill="black"/>
<path d="M14.6086 34.5067L11.243 35.2314C10.983 35.2871 10.7559 35.4437 10.6114 35.6669C10.467 35.8901 10.4171 36.1615 10.4728 36.4214C10.5285 36.6813 10.6851 36.9085 10.9083 37.053C11.1315 37.1974 11.4029 37.2473 11.6628 37.1916L15.0285 36.4669C15.2884 36.4112 15.5156 36.2546 15.66 36.0314C15.8045 35.8082 15.8543 35.5368 15.7986 35.2769C15.743 35.0169 15.5863 34.7897 15.3631 34.6453C15.14 34.5009 14.8686 34.451 14.6086 34.5067Z" fill="black"/>
<path d="M41.3748 30.2164L38.0122 30.7262C37.7494 30.7659 37.5133 30.9085 37.3556 31.1223C37.198 31.3362 37.1317 31.604 37.1715 31.8667C37.2113 32.1295 37.3538 32.3656 37.5677 32.5233C37.7816 32.6809 38.0493 32.7472 38.312 32.7074L41.6777 32.1976C41.9405 32.1578 42.1768 32.0153 42.3346 31.8013C42.4923 31.5873 42.5586 31.3194 42.5188 31.0565C42.4791 30.7937 42.3365 30.5574 42.1225 30.3996C41.9085 30.2419 41.6406 30.1756 41.3778 30.2154L41.3748 30.2164Z" fill="black"/>
<path d="M41.5908 35.2334L38.2251 34.5067C38.0964 34.4791 37.9635 34.4772 37.8341 34.5009C37.7046 34.5247 37.5811 34.5738 37.4706 34.6453C37.3601 34.7168 37.2648 34.8094 37.19 34.9178C37.1153 35.0261 37.0627 35.1481 37.0351 35.2769C37.0075 35.4056 37.0056 35.5384 37.0294 35.6679C37.0532 35.7974 37.1022 35.9209 37.1737 36.0314C37.2453 36.1419 37.3378 36.2372 37.4462 36.3119C37.5546 36.3867 37.6766 36.4393 37.8053 36.4669L41.1709 37.1916C41.4309 37.2473 41.7023 37.1974 41.9255 37.053C42.1486 36.9085 42.3053 36.6813 42.361 36.4214C42.4166 36.1615 42.3668 35.8901 42.2223 35.6669C42.0779 35.4437 41.8507 35.287 41.5908 35.2314V35.2334Z" fill="black"/>
<path d="M51.7805 26.0652C51.7696 26.0522 51.0249 25.1426 49.1126 22.8365C49.3245 21.9049 49.7314 19.7878 49.8253 16.8919C49.9413 13.3264 49.5824 7.84859 47.2154 1.99796C47.2044 1.97197 47.1924 1.94698 47.1804 1.92199C46.9732 1.45609 46.5975 1.08578 46.1286 0.885361C45.6597 0.684946 45.1324 0.669252 44.6524 0.841427C43.296 1.32823 36.4997 4.00515 32.2424 10.0767C29.0437 9.26602 26.6697 9.27002 26.4168 9.27702C26.1639 9.28401 23.7929 9.26902 20.5912 10.0767C16.3339 4.00515 9.53763 1.32823 8.18118 0.841427C7.70188 0.669618 7.17535 0.685414 6.70722 0.885644C6.23909 1.08587 5.864 1.45573 5.6572 1.92099C5.6432 1.94831 5.63021 1.9763 5.61821 2.00496C3.25117 7.84859 2.89231 13.3264 3.00827 16.8919C3.10323 19.7908 3.50806 21.9049 3.72098 22.8365C1.80875 25.1426 1.06405 26.0522 1.05306 26.0652C0.906862 26.2448 0.827075 26.4694 0.827148 26.701C0.827148 32.4247 2.1776 37.3207 4.84153 41.2531C6.98066 44.4088 9.95446 46.9398 13.681 48.773C19.9644 51.8648 26.1559 51.9008 26.4168 51.9008C26.6777 51.9008 32.8692 51.8648 39.1527 48.773C42.8791 46.9398 45.8499 44.4088 47.9921 41.2531C50.656 37.3207 52.0065 32.4247 52.0065 26.701C52.0065 26.4694 51.9267 26.2448 51.7805 26.0652ZM43.133 3.66429C40.6376 5.99405 38.5528 8.72796 36.9665 11.751C36.092 11.3436 35.1957 10.9849 34.2816 10.6764C37.0205 7.05292 40.731 4.82582 43.133 3.66429ZM18.552 10.6764C17.6379 10.9849 16.7416 11.3436 15.8671 11.751C14.2808 8.72796 12.196 5.99405 9.70056 3.66429C12.1026 4.82582 15.8131 7.05292 18.552 10.6764ZM46.3577 40.0946C44.4275 42.9574 41.7266 45.2625 38.33 46.9448C32.4594 49.8526 26.4758 49.8956 26.4168 49.8956C26.3578 49.8956 20.4342 49.8626 14.5636 46.9738C11.152 45.2955 8.43807 42.9914 6.49786 40.1265C4.11782 36.614 2.88432 32.2177 2.82634 27.0578C3.39411 26.3671 5.07843 24.3239 8.51804 20.1956C8.60985 20.0961 8.68051 19.9791 8.72572 19.8515C8.77093 19.7239 8.78976 19.5885 8.78106 19.4534C8.77237 19.3183 8.73632 19.1864 8.67512 19.0657C8.61392 18.9449 8.52884 18.8379 8.42503 18.751C8.32122 18.6641 8.20085 18.5993 8.07122 18.5603C7.94159 18.5213 7.80539 18.5091 7.67089 18.5244C7.5364 18.5396 7.4064 18.582 7.28878 18.649C7.17116 18.716 7.06838 18.8062 6.98666 18.9141L5.3873 20.8403C4.8975 17.7016 4.4187 11.1922 7.01265 3.97916C9.92507 6.38102 12.3319 9.33693 14.0938 12.6756C13.446 13.0362 12.8243 13.427 12.2285 13.8482C12.0108 14.0003 11.8623 14.2328 11.8159 14.4944C11.7695 14.756 11.829 15.0253 11.9811 15.2431C12.1333 15.4609 12.3658 15.6093 12.6274 15.6557C12.889 15.7021 13.1583 15.6427 13.3761 15.4905C14.1638 14.9388 14.9873 14.4399 15.8411 13.9971H15.8461L15.8601 13.9891C17.3186 13.237 18.8503 12.6361 20.4312 12.1958C23.7969 11.2502 26.3738 11.2812 26.3978 11.2802C26.4105 11.2812 26.4232 11.2812 26.4358 11.2802C26.4608 11.2802 29.0168 11.2442 32.4024 12.1958C33.9833 12.6361 35.515 13.237 36.9735 13.9891L36.9875 13.9971H36.9925C37.8463 14.4399 38.6698 14.9388 39.4575 15.4905C39.6753 15.6427 39.9446 15.7021 40.2062 15.6557C40.4678 15.6093 40.7003 15.4609 40.8525 15.2431C41.0046 15.0253 41.0641 14.756 41.0177 14.4944C40.9713 14.2328 40.8229 14.0003 40.6051 13.8482C40.0053 13.4283 39.3856 13.0358 38.7458 12.6706C41.0589 8.23444 44.2266 5.28563 45.827 3.97416C47.2817 8.07322 47.9596 12.4075 47.8261 16.755C47.7866 18.1216 47.6617 19.4843 47.4523 20.8353L45.847 18.9141C45.677 18.7103 45.4331 18.5822 45.1687 18.5582C44.9044 18.5342 44.6414 18.6162 44.4375 18.7862C44.2337 18.9561 44.1056 19.2001 44.0816 19.4644C44.0576 19.7287 44.1396 19.9917 44.3096 20.1956C47.7492 24.3239 49.4335 26.3671 50.0013 27.0578C49.9493 32.2017 48.7238 36.587 46.3577 40.0946Z" fill="black"/>
</g>
<defs>
<clipPath id="clip0">
<rect width="51.1793" height="51.1793" fill="white" transform="translate(0.827148 0.720398)"/>
</clipPath>
</defs>
</svg>
