<svg width="52" height="52" viewBox="0 0 52 52" fill="none" xmlns="http://www.w3.org/2000/svg">
<g clip-path="url(#clip0)">
<path d="M45.9194 17.5713C47.4637 12.5014 47.2928 7.14054 46.9829 4.0128C46.9486 3.66143 46.8386 3.32165 46.6606 3.01678C46.4825 2.71192 46.2406 2.44919 45.9515 2.24664C45.6623 2.04408 45.3327 1.9065 44.9854 1.84333C44.638 1.78015 44.2811 1.79289 43.9392 1.88066C37.8936 3.43903 34.3101 6.05997 32.2889 8.14713C30.2115 7.67199 28.0864 7.43721 25.9554 7.44741C23.8244 7.43721 21.6994 7.67199 19.622 8.14713C17.6008 6.05997 14.0173 3.43903 7.9717 1.88066C7.62974 1.79289 7.27283 1.78015 6.92548 1.84333C6.57813 1.9065 6.24857 2.04408 5.95941 2.24664C5.67025 2.44919 5.42834 2.71192 5.25029 3.01678C5.07225 3.32165 4.96228 3.66143 4.92793 4.0128C4.61806 7.14054 4.44713 12.5014 5.9915 17.5713C2.93174 22.1625 1.46533 29.2436 1.46533 34.6604C1.46533 39.5055 9.54607 50.8009 25.9554 50.8009C42.3648 50.8009 50.4455 39.5055 50.4455 34.6604C50.4455 29.2436 48.9791 22.1625 45.9194 17.5713Z" fill="#F29555"/>
<path d="M38.8006 30.9702C33.7356 30.9702 31.5485 35.9812 25.9548 35.9812C20.361 35.9812 18.1739 30.9702 13.1089 30.9702C5.76292 30.9702 2.64518 37.1507 2.29532 37.8954C4.73733 43.2932 12.5792 50.8002 25.9548 50.8002C39.3303 50.8002 47.1722 43.2932 49.6142 37.8954C49.2643 37.1507 46.1466 30.9702 38.8006 30.9702Z" fill="#F7E3CD"/>
<path d="M25.8548 47.0736C14.7703 47.0736 6.94644 42.6524 2.32431 37.8353L2.29532 37.8953C4.73733 43.2931 12.5792 50.8001 25.9548 50.8001C39.3303 50.8001 47.1722 43.2931 49.6142 37.8953C49.5932 37.8493 49.5602 37.7823 49.5142 37.6954C44.9121 42.5684 37.0443 47.0736 25.8548 47.0736Z" fill="#F2C59E"/>
<path d="M12.96 10.4855C11.6965 9.154 9.74325 7.14881 8.98955 6.65201C5.99076 4.67481 4.73127 7.25177 4.73127 7.25177C4.66629 10.1356 4.88221 13.7202 5.8818 17.1968C9.03053 14.072 14.4514 11.2991 14.4514 11.2991C13.8812 11.191 13.3595 10.9063 12.96 10.4855Z" fill="#F7E3CD"/>
<path d="M38.9495 10.4855C40.213 9.154 42.1662 7.14881 42.9199 6.65201C45.9187 4.67481 47.1782 7.25177 47.1782 7.25177C47.2431 10.1356 47.0272 13.7202 46.0276 17.1968C42.8789 14.072 37.4581 11.2991 37.4581 11.2991C38.0282 11.191 38.55 10.9063 38.9495 10.4855Z" fill="#F7E3CD"/>
<path d="M21.1266 20.3724C21.1266 21.404 20.0941 22.2406 18.8216 22.2406C17.5491 22.2406 16.5155 21.0041 16.5155 19.9726C16.5155 18.941 17.5481 18.5042 18.8216 18.5042C20.0951 18.5042 21.1266 19.3408 21.1266 20.3724Z" fill="#F7E3CD"/>
<path d="M30.9367 20.3724C30.9367 21.404 31.9693 22.2406 33.2427 22.2406C34.5162 22.2406 35.5508 21.0041 35.5508 19.9726C35.5508 18.941 34.5182 18.5042 33.2457 18.5042C31.9733 18.5042 30.9367 19.3408 30.9367 20.3724Z" fill="#F7E3CD"/>
<path d="M26.0316 38.3682C26.0316 38.3682 23.5636 41.8448 19.1444 40.7862V40.9511C19.1444 40.9511 20.119 45.6172 25.9547 45.6172C31.7903 45.6172 32.7639 40.9511 32.7639 40.9511V40.8222C28.4416 41.7638 26.0316 38.3682 26.0316 38.3682Z" fill="#AA0C18"/>
<path d="M47.0902 17.3892C48.5056 12.4252 48.4066 7.30631 48.0638 3.84171C48.0147 3.34502 47.8589 2.86482 47.6068 2.43403C47.3548 2.00325 47.0125 1.63208 46.6036 1.34599C46.1946 1.05989 45.7286 0.865646 45.2375 0.77657C44.7464 0.687493 44.2419 0.705696 43.7585 0.829929C37.7609 2.3753 34.0914 4.95826 31.9933 6.99144C28.0083 6.18109 23.9011 6.18109 19.9161 6.99144C17.817 4.95826 14.1485 2.3753 8.1509 0.829929C7.66751 0.705696 7.16297 0.687493 6.67188 0.77657C6.1808 0.865646 5.71479 1.05989 5.30583 1.34599C4.89686 1.63208 4.55462 2.00325 4.30258 2.43403C4.05054 2.86482 3.89467 3.34502 3.84564 3.84171C3.50278 7.30631 3.40382 12.4252 4.81925 17.3892C1.53858 22.5881 0.365051 29.9142 0.365051 34.6982C0.365051 37.3052 2.36424 41.6214 6.83743 45.3869C10.366 48.3577 16.5465 51.8993 25.9547 51.8993C35.3629 51.8993 41.5484 48.3577 45.072 45.3869C49.5452 41.6214 51.5444 37.3052 51.5444 34.6982C51.5444 29.9142 50.3708 22.5881 47.0902 17.3892ZM44.2593 2.77214C44.461 2.71941 44.6718 2.71142 44.877 2.74871C45.0821 2.78601 45.2766 2.8677 45.4468 2.98806C45.6193 3.10847 45.7637 3.26482 45.87 3.44635C45.9763 3.62788 46.042 3.83028 46.0626 4.03963C46.0916 4.33351 46.1196 4.65938 46.1455 5.01024C46.0856 4.99025 46.0266 4.97025 45.9636 4.95326C44.8711 4.65338 43.6815 4.92727 42.429 5.75294C41.7763 6.18276 40.3769 7.52622 38.2687 9.74632C38.0286 10.0016 37.7176 10.1791 37.3758 10.256C37.0339 10.333 36.6768 10.3059 36.3505 10.1781C35.4329 9.8173 34.2803 9.20554 33.5776 8.25393C35.5188 6.42867 38.8495 4.16558 44.2593 2.77214ZM6.46259 2.98806C6.70342 2.8175 6.99114 2.72567 7.28625 2.72516C7.41034 2.72554 7.5339 2.74132 7.6541 2.77214C13.0599 4.16558 16.3906 6.42867 18.3328 8.25393C17.6331 9.20554 16.4775 9.8173 15.5599 10.1781C15.2329 10.3067 14.8749 10.3342 14.5321 10.2573C14.1892 10.1803 13.8773 10.0023 13.6367 9.74632C11.5285 7.52622 10.1291 6.18276 9.47637 5.75294C8.22387 4.92727 7.03436 4.65338 5.9418 4.95326C5.87882 4.97025 5.81985 4.99025 5.75987 5.01024C5.78586 4.65938 5.81385 4.33351 5.84284 4.03963C5.86391 3.82995 5.93023 3.62734 6.03723 3.44579C6.14423 3.26423 6.28936 3.10806 6.46259 2.98806ZM43.7785 43.8525C40.5068 46.6084 34.7581 49.8931 25.9547 49.8931C17.1513 49.8931 11.4026 46.6084 8.13091 43.8525C4.35044 40.6688 2.37224 36.8374 2.37224 34.6982C2.37224 29.7193 3.7177 22.6771 6.72348 18.1419C7.43437 17.3018 8.23178 16.5389 9.10252 15.8659C9.31527 15.7068 9.45612 15.4697 9.49408 15.2068C9.53204 14.9439 9.464 14.6767 9.30494 14.4639C9.14587 14.2512 8.90881 14.1103 8.64589 14.0724C8.38298 14.0344 8.11575 14.1024 7.903 14.2615C7.38355 14.6552 6.88913 15.0808 6.4226 15.536C5.77386 12.6841 5.62293 9.82629 5.65391 7.48624C5.85436 7.19879 6.146 6.98745 6.48158 6.88648C6.99337 6.75453 7.63011 6.93646 8.38081 7.42826C8.88061 7.75513 10.3 9.13757 12.1913 11.1268C12.7061 11.6738 13.3733 12.0536 14.1065 12.2172C14.8397 12.3808 15.605 12.3206 16.3036 12.0444C17.6191 11.5266 19.3194 10.583 20.273 8.97064C24.0272 8.19495 27.9002 8.19495 31.6544 8.97064C32.608 10.583 34.3083 11.5266 35.6238 12.0444C36.3224 12.3206 37.0878 12.3808 37.8209 12.2172C38.5541 12.0536 39.2213 11.6738 39.7361 11.1268C41.6274 9.13657 43.0518 7.75413 43.5466 7.42826C44.2933 6.93646 44.931 6.75453 45.4458 6.88648C45.7813 6.98759 46.0729 7.1989 46.2735 7.48624C46.3095 9.82529 46.1535 12.6841 45.5048 15.536C45.0383 15.0808 44.5439 14.6552 44.0244 14.2615C43.9191 14.1824 43.7992 14.1248 43.6716 14.0921C43.544 14.0593 43.4112 14.052 43.2808 14.0706C43.1504 14.0892 43.0249 14.1332 42.9115 14.2003C42.7981 14.2673 42.6991 14.3561 42.62 14.4614C42.5409 14.5668 42.4833 14.6867 42.4506 14.8142C42.4178 14.9418 42.4105 15.0746 42.4291 15.205C42.4476 15.3355 42.4917 15.4609 42.5588 15.5743C42.6258 15.6877 42.7145 15.7868 42.8199 15.8659C43.6907 16.5391 44.4882 17.3024 45.1989 18.1429C48.2047 22.6771 49.5502 29.7193 49.5502 34.6982C49.5372 36.8374 47.559 40.6688 43.7785 43.8525Z" fill="black"/>
<path d="M16.2076 28.4931C17.6551 28.4931 18.8286 27.3197 18.8286 25.8722C18.8286 24.4247 17.6551 23.2512 16.2076 23.2512C14.7601 23.2512 13.5867 24.4247 13.5867 25.8722C13.5867 27.3197 14.7601 28.4931 16.2076 28.4931Z" fill="black"/>
<path d="M35.8557 23.2512C35.3373 23.2512 34.8306 23.4049 34.3996 23.6929C33.9686 23.9809 33.6326 24.3903 33.4342 24.8692C33.2359 25.3481 33.184 25.8751 33.2851 26.3835C33.3862 26.8919 33.6359 27.3589 34.0024 27.7255C34.3689 28.092 34.836 28.3416 35.3444 28.4428C35.8528 28.5439 36.3798 28.492 36.8587 28.2936C37.3376 28.0952 37.7469 27.7593 38.0349 27.3283C38.3229 26.8973 38.4766 26.3905 38.4766 25.8722C38.4761 25.1772 38.1998 24.5109 37.7084 24.0195C37.217 23.5281 36.5506 23.2518 35.8557 23.2512Z" fill="black"/>
<path d="M33.7515 39.4716C30.02 40.971 27.6839 38.7619 27.0312 38.0162V37.8632C28.0205 37.6535 28.9335 37.1768 29.6711 36.4848C30.6407 35.5852 31.2195 34.4466 31.2195 33.427C31.2195 31.3659 28.9414 29.7515 26.0316 29.7515C23.1218 29.7515 20.8437 31.3659 20.8437 33.427C20.8437 35.2383 22.643 37.3784 25.032 37.8632V38.0152C24.3753 38.7669 22.0392 40.972 18.3117 39.4716C18.1895 39.4202 18.0583 39.3936 17.9257 39.3933C17.7932 39.3931 17.6619 39.4192 17.5395 39.4702C17.4171 39.5212 17.3061 39.596 17.2129 39.6903C17.1197 39.7846 17.0462 39.8965 16.9967 40.0195C16.9472 40.1425 16.9226 40.2741 16.9244 40.4067C16.9263 40.5392 16.9544 40.6701 17.0073 40.7917C17.0602 40.9133 17.1368 41.0231 17.2325 41.1148C17.3282 41.2065 17.4413 41.2782 17.565 41.3258C17.8099 41.4258 18.0498 41.5098 18.2847 41.5837C18.5707 42.439 19.0146 43.2331 19.5932 43.9248C20.6178 45.1523 22.556 46.6167 25.9546 46.6167C29.3532 46.6167 31.2905 45.1523 32.315 43.9248C32.8816 43.2475 33.3191 42.472 33.6055 41.6367C33.8961 41.5521 34.1936 41.4485 34.4982 41.3258C34.74 41.2241 34.9322 41.0312 35.0331 40.789C35.134 40.5468 35.1357 40.2746 35.0376 40.0311C34.9396 39.7877 34.7498 39.5926 34.5092 39.4879C34.2685 39.3832 33.9964 39.3774 33.7515 39.4716ZM25.9546 44.6175C22.8349 44.6175 21.3405 43.1181 20.6568 41.9836H20.7887C22.0583 41.9837 23.3065 41.657 24.4132 41.035C24.9997 40.7063 25.5436 40.3068 26.0326 39.8454C26.5218 40.3066 27.0656 40.7061 27.6519 41.035C28.751 41.6527 29.9897 41.9792 31.2505 41.9836C31.0968 42.239 30.9219 42.4811 30.7277 42.7073C29.6321 43.9758 28.0268 44.6175 25.9546 44.6175Z" fill="black"/>
</g>
<defs>
<clipPath id="clip0">
<rect width="51.1793" height="51.1793" fill="white" transform="translate(0.365051 0.720398)"/>
</clipPath>
</defs>
</svg>
