<svg width="45" height="49" viewBox="0 0 45 49" fill="none" xmlns="http://www.w3.org/2000/svg">
<path d="M27.7172 30.0422C27.7172 32.6469 26.9708 34.7591 22.4927 34.7591C23.2391 34.7591 25.4781 33.0873 25.4781 31.0274C25.4781 25.0341 24.2243 20.1455 22.6494 19.8469C25.4632 20.1081 27.7172 27.4896 27.7172 30.0422Z" fill="#8F643F"/>
<path d="M22.4926 19.8319V34.7591C21.7463 34.7591 19.5072 33.0872 19.5072 31.0273C19.5072 25.034 20.7611 20.1454 22.3359 19.8468C22.3877 19.8382 22.4401 19.8332 22.4926 19.8319Z" fill="#8F643F"/>
<path d="M22.6494 19.8468C24.2243 20.1454 25.4781 25.034 25.4781 31.0273C25.4781 33.0872 23.2391 34.7591 22.4927 34.7591V19.8319C22.5452 19.8332 22.5976 19.8382 22.6494 19.8468Z" fill="#593F27"/>
<path d="M19.5072 31.0274C19.5072 33.0873 21.7463 34.7591 22.4927 34.7591C18.0145 34.7591 17.2682 32.6469 17.2682 30.0422C17.2682 27.4896 19.5222 20.1081 22.3359 19.8469C20.7611 20.1455 19.5072 25.0341 19.5072 31.0274Z" fill="#593F27"/>
<path d="M29.2099 4.39498V7.14381C29.2087 7.53934 29.051 7.91833 28.7713 8.19801C28.4917 8.4777 28.1127 8.63534 27.7171 8.63652C27.3222 8.6336 26.9442 8.47539 26.6649 8.19608C26.3856 7.91678 26.2274 7.5388 26.2244 7.14381V3.70087C27.2363 3.85306 28.2346 4.08516 29.2099 4.39498Z" fill="#F2D1A5"/>
<path d="M23.9854 3.45445V9.38276C23.9842 9.77829 23.8266 10.1573 23.5469 10.437C23.2672 10.7166 22.8882 10.8743 22.4927 10.8755C22.0977 10.8725 21.7197 10.7143 21.4404 10.435C21.1611 10.1557 21.0029 9.77775 21 9.38276V3.45445C21.4926 3.4246 21.9852 3.40967 22.4927 3.40967C23.0002 3.40967 23.4928 3.4246 23.9854 3.45445Z" fill="#F2D1A5"/>
<path d="M18.7608 3.70087V7.14381C18.7597 7.53934 18.602 7.91833 18.3223 8.19801C18.0427 8.4777 17.6637 8.63534 17.2681 8.63652C16.8731 8.6336 16.4952 8.47539 16.2159 8.19608C15.9366 7.91678 15.7784 7.5388 15.7754 7.14381V4.39498C16.7507 4.08516 17.7489 3.85306 18.7608 3.70087Z" fill="#F2D1A5"/>
<path d="M38.8827 46.6484C39.7981 46.1166 40.5455 45.3382 41.0397 44.4019L41.1516 44.4616L43.5773 45.7304C43.7689 45.8074 43.9278 45.9486 44.0268 46.1299C44.1258 46.3111 44.1587 46.5211 44.1199 46.724C44.0811 46.9268 43.973 47.1098 43.8141 47.2417C43.6552 47.3737 43.4554 47.4462 43.2489 47.4471L38.9125 46.7007L38.8827 46.6484Z" fill="#E3A76F"/>
<path d="M3.9457 44.4019C4.43986 45.3382 5.18729 46.1166 6.10267 46.6484L6.07282 46.7007L1.73649 47.4471C1.52998 47.4462 1.33017 47.3737 1.17127 47.2417C1.01238 47.1098 0.904274 46.9268 0.86547 46.724C0.826667 46.5211 0.859576 46.3111 0.958564 46.1299C1.05755 45.9486 1.21646 45.8074 1.40809 45.7304L3.83375 44.4616L3.9457 44.4019Z" fill="#E3A76F"/>
<path d="M14.2156 31.2652L17.0293 34.0789L17.9026 33.049L18.0145 33.1385C18.7236 34.1312 20.0521 34.7581 22.4927 34.7581C24.9333 34.7581 26.2618 34.1312 26.9708 33.1385L27.0828 33.049L27.956 34.0789L30.7698 31.2652L29.18 29.9217L29.2099 29.8844C32.0019 29.572 34.7444 28.9152 37.375 27.929L37.4198 28.0417C37.4198 28.0417 41.8979 36.2516 41.8979 40.7297C41.9256 42.0067 41.6304 43.2701 41.0396 44.4026C40.5455 45.3388 39.7981 46.1173 38.8827 46.6491C37.9874 47.1766 36.9662 47.4522 35.9271 47.447H34.9867C33.4343 47.4543 31.8928 47.1865 30.4339 46.6558C27.9123 45.6399 25.2105 45.1473 22.4927 45.2079C19.7748 45.1473 17.073 45.6399 14.5514 46.6558C13.0925 47.1865 11.5511 47.4543 9.99866 47.447H9.05825C8.01909 47.452 6.99788 47.1761 6.10268 46.6484C5.18729 46.1165 4.43987 45.3381 3.94571 44.4018C3.35508 43.2695 3.05985 42.0065 3.0874 40.7297C3.0874 36.2516 7.56554 28.0417 7.56554 28.0417L7.61032 27.9297C10.241 28.9157 12.9835 29.5722 15.7755 29.8844L15.8053 29.9217L14.2156 31.2652Z" fill="#F2D1A5"/>
<path d="M38.1661 13.1146C36.1907 14.4949 33.8574 15.2726 31.4489 15.3537C28.0381 15.3537 27.1201 13.4878 23.5749 13.1587C23.239 13.1273 22.8808 13.1146 22.4926 13.1146C18.0145 13.1146 17.2681 15.3537 13.5364 15.3537C11.1279 15.2726 8.79458 14.4949 6.81915 13.1146C3.66953 14.1595 0.848297 17.3547 0.848297 20.5782C0.848297 23.7875 3.44562 26.2729 7.61029 27.9305C10.241 28.9163 12.9835 29.5726 15.7754 29.8845L15.8053 29.9218L16.6561 29.1979C16.8691 29.0135 17.1263 28.8875 17.4025 28.8321L17.3876 28.7881C17.8876 25.6303 19.9103 20.0401 22.3583 19.8385C22.4031 19.8385 22.4479 19.8311 22.4926 19.8311C22.5374 19.8311 22.5822 19.8385 22.627 19.8385C22.845 19.8552 23.0578 19.9134 23.2539 20.0102C25.4109 20.9879 27.1424 25.899 27.5977 28.7881L27.5828 28.8329C27.859 28.8883 28.1162 29.0143 28.3292 29.1986L29.18 29.9226L29.2099 29.8853C32.0018 29.5728 34.7444 28.916 37.375 27.9298C41.5397 26.2714 44.137 23.7875 44.137 20.5782C44.137 17.3524 41.3158 14.1595 38.1661 13.1146ZM23.8361 16.5479L23.0897 17.5405C23.0217 17.6353 22.932 17.7125 22.8282 17.7657C22.7243 17.819 22.6093 17.8468 22.4926 17.8468C22.376 17.8468 22.2609 17.819 22.1571 17.7657C22.0533 17.7125 21.9636 17.6353 21.8956 17.5405L21.1492 16.5479C21.066 16.437 21.0154 16.3051 21.0029 16.1671C20.9905 16.029 21.0167 15.8902 21.0787 15.7663C21.1407 15.6423 21.236 15.538 21.3539 15.4652C21.4718 15.3923 21.6077 15.3537 21.7463 15.3537H23.239C23.2915 15.355 23.3439 15.36 23.3957 15.3686C23.5184 15.3948 23.6326 15.4515 23.7276 15.5334C23.8226 15.6154 23.8954 15.7199 23.9393 15.8375C23.9832 15.955 23.9968 16.0817 23.9787 16.2059C23.9607 16.3301 23.9116 16.4477 23.8361 16.5479Z" fill="#F2D1A5"/>
<path d="M38.614 10.3807C38.3229 10.7166 37.8975 11.142 37.6437 11.3958C37.2236 10.3845 36.644 9.44707 35.9271 8.61933C35.8921 8.04212 35.9766 7.4639 36.1754 6.92086C36.3741 6.37782 36.6828 5.88165 37.0822 5.4634C37.4815 5.04515 37.9629 4.71383 38.4961 4.49017C39.0294 4.26651 39.6031 4.15533 40.1813 4.16357C40.4505 5.24891 40.4483 6.38382 40.1749 7.46811C39.9016 8.5524 39.3655 9.55271 38.614 10.3807Z" fill="#F2D1A5"/>
<path d="M9.05829 8.61933C8.34131 9.44707 7.76175 10.3845 7.34167 11.3958C7.08791 11.142 6.66248 10.7166 6.3714 10.3807C5.61988 9.55271 5.08378 8.5524 4.81044 7.46811C4.53709 6.38382 4.53489 5.24891 4.80405 4.16357C5.38226 4.15533 5.95596 4.26651 6.48922 4.49017C7.02249 4.71383 7.50385 5.04515 7.90318 5.4634C8.30251 5.88165 8.61122 6.37782 8.80998 6.92086C9.00874 7.4639 9.09327 8.04212 9.05829 8.61933Z" fill="#F2D1A5"/>
<path d="M12.6632 3.21564C13.1358 3.81377 13.4306 4.53278 13.514 5.29051C11.8112 6.07429 10.2928 7.20859 9.05828 8.61926C9.09327 8.04205 9.00873 7.46384 8.80997 6.9208C8.61121 6.37776 8.30251 5.88159 7.90317 5.46334C7.50384 5.04509 7.02248 4.71377 6.48922 4.49011C5.95595 4.26645 5.38226 4.15526 4.80405 4.16351C4.97699 3.53553 5.28809 2.95413 5.7146 2.46182C7.45362 0.483228 10.5585 0.819088 12.6632 3.21564Z" fill="#E3A76F"/>
<path d="M39.2708 2.46182C39.6973 2.95413 40.0084 3.53553 40.1813 4.16351C39.6031 4.15526 39.0294 4.26645 38.4962 4.49011C37.9629 4.71377 37.4815 5.04509 37.0822 5.46334C36.6829 5.88159 36.3742 6.37776 36.1754 6.9208C35.9766 7.46384 35.8921 8.04205 35.9271 8.61926C34.6925 7.20859 33.1742 6.07429 31.4713 5.29051C31.5547 4.53278 31.8496 3.81377 32.3222 3.21564C34.4269 0.819088 37.5318 0.483228 39.2708 2.46182Z" fill="#E3A76F"/>
<path d="M37.6437 11.398C37.2236 10.3867 36.644 9.4493 35.927 8.62155C34.6925 7.21088 33.1742 6.07659 31.4713 5.2928C30.7413 4.93665 29.9853 4.6365 29.2098 4.39494V7.14377C29.2086 7.5393 29.051 7.91829 28.7713 8.19797C28.4916 8.47765 28.1126 8.6353 27.7171 8.63648C27.3221 8.63355 26.9442 8.47534 26.6648 8.19604C26.3855 7.91673 26.2273 7.53876 26.2244 7.14377V3.70083C25.4829 3.57947 24.7355 3.49726 23.9853 3.45453V9.38284C23.9841 9.77837 23.8265 10.1574 23.5468 10.437C23.2671 10.7167 22.8881 10.8744 22.4926 10.8756C22.0976 10.8726 21.7197 10.7144 21.4403 10.4351C21.161 10.1558 21.0028 9.77782 20.9999 9.38284V3.45453C20.2497 3.49726 19.5023 3.57947 18.7608 3.70083V7.14377C18.7597 7.5393 18.602 7.91829 18.3223 8.19797C18.0426 8.47765 17.6636 8.6353 17.2681 8.63648C16.8731 8.63355 16.4952 8.47534 16.2158 8.19604C15.9365 7.91673 15.7783 7.53876 15.7754 7.14377V4.39494C15 4.63577 14.244 4.93518 13.5139 5.29057C11.8111 6.07435 10.2927 7.20864 9.05819 8.61932C8.34122 9.44706 7.76165 10.3844 7.34157 11.3958C7.11464 11.9513 6.93974 12.5267 6.81912 13.1146C8.79455 14.4949 11.1278 15.2726 13.5363 15.3537C17.2681 15.3537 18.0145 13.1146 22.4926 13.1146C22.8807 13.1146 23.239 13.1295 23.5748 13.1594C27.12 13.4878 28.038 15.3537 31.4489 15.3537C33.8574 15.2726 36.1907 14.4949 38.1661 13.1146C38.0454 12.5275 37.8705 11.9528 37.6437 11.398Z" fill="#E3A76F"/>
<path d="M38.7102 6.47799C38.8097 6.46098 38.9117 6.46399 39.01 6.48683C39.1084 6.50967 39.2012 6.5519 39.2831 6.61104C39.365 6.67017 39.4342 6.74504 39.4868 6.83125C39.5394 6.91746 39.5743 7.01329 39.5894 7.11314C39.6756 7.73823 39.6678 8.37268 39.5663 8.99546C40.3845 7.52366 40.6047 5.79337 40.1813 4.16354C39.0906 4.14636 38.0369 4.55886 37.2478 5.31197C36.4586 6.06507 35.9974 7.09834 35.9636 8.18864C36.281 7.73175 36.6883 7.3444 37.1606 7.05027C37.6328 6.75614 38.1601 6.56141 38.7102 6.47799Z" fill="#E6C293"/>
<path d="M40.017 3.95454C40.0753 4.02096 40.126 4.09336 40.1797 4.16352C40.0068 3.53553 39.6957 2.95413 39.2692 2.46182C37.5302 0.483231 34.4253 0.819838 32.3206 3.21564C31.848 3.81378 31.5532 4.53278 31.4698 5.29051C31.8116 5.45322 32.1333 5.63533 32.4542 5.81744C32.5902 5.41397 32.7978 5.03828 33.067 4.70836C35.1732 2.3118 38.278 1.97594 40.017 3.95454Z" fill="#F5B57B"/>
<path d="M6.29673 6.47807C6.19719 6.46106 6.09525 6.46406 5.99688 6.4869C5.89851 6.50975 5.80568 6.55197 5.72382 6.61111C5.64196 6.67025 5.57271 6.74511 5.52012 6.83132C5.46753 6.91754 5.43265 7.01337 5.41753 7.11322C5.33136 7.7383 5.33916 8.37275 5.44066 8.99553C4.62244 7.52374 4.40222 5.79345 4.82566 4.16362C5.91584 4.14723 6.96876 4.56008 7.75725 5.3131C8.54574 6.06612 9.00658 7.09894 9.04035 8.18872C8.72322 7.73216 8.31639 7.34501 7.84468 7.05089C7.37297 6.75678 6.84627 6.56187 6.29673 6.47807Z" fill="#E6C293"/>
<path d="M4.9868 3.95454C4.92859 4.02096 4.87783 4.09336 4.8241 4.16352C4.99704 3.53553 5.30814 2.95413 5.73465 2.46182C7.47366 0.483231 10.5785 0.819838 12.6832 3.21564C13.1566 3.81352 13.4523 4.53255 13.5363 5.29051C13.1945 5.45322 12.8728 5.63533 12.5519 5.81744C12.4158 5.41397 12.2083 5.03828 11.9391 4.70836C9.83066 2.3118 6.72581 1.97594 4.9868 3.95454Z" fill="#F5B57B"/>
<path d="M28.0515 6.55941C28.453 6.70197 28.8359 6.86243 29.2099 7.03484V4.39498C28.2346 4.08516 27.2363 3.85306 26.2244 3.70087V6.05712C26.8435 6.18572 27.4537 6.35349 28.0515 6.55941Z" fill="#FFDDB3"/>
<path d="M21.2575 5.69203C21.665 5.66441 22.0725 5.65098 22.4927 5.65098C22.9129 5.65098 23.3204 5.66441 23.7279 5.69203C23.8153 5.698 23.8989 5.7092 23.9854 5.71666V3.45445C23.4928 3.4246 23.0002 3.40967 22.4927 3.40967C21.9852 3.40967 21.4926 3.4246 21 3.45445V5.71666C21.0866 5.7092 21.1702 5.698 21.2575 5.69203Z" fill="#FFDDB3"/>
<path d="M16.9338 6.55941C17.5316 6.35349 18.1418 6.18572 18.7608 6.05712V3.70087C17.7489 3.85306 16.7507 4.08516 15.7754 4.39498V7.03484C16.1486 6.86243 16.5322 6.70197 16.9338 6.55941Z" fill="#FFDDB3"/>
<path d="M38.1661 13.1146C37.3233 13.7022 36.412 14.1849 35.4524 14.5521C35.4524 14.5693 35.4606 14.5849 35.4636 14.6021C36.8562 15.1605 38.0608 16.1044 38.9361 17.3231C39.8113 18.5417 40.321 19.9847 40.4052 21.4828C40.4052 24.4428 38.2557 26.7349 34.8075 28.2634C32.9885 29.029 31.0841 29.573 29.1352 29.8838L29.1793 29.9218L29.2091 29.8845C32.0011 29.5721 34.7437 28.9153 37.3743 27.9291C41.5397 26.2714 44.137 23.7875 44.137 20.5782C44.137 17.3524 41.3158 14.1595 38.1661 13.1146Z" fill="#FFDDB3"/>
<path d="M4.58008 21.4828C4.66392 19.9843 5.17336 18.5409 6.04864 17.3217C6.92392 16.1026 8.12873 15.1584 9.52171 14.5999C9.52171 14.5827 9.52992 14.567 9.5329 14.5499C8.57344 14.1833 7.66215 13.7014 6.81915 13.1146C3.66953 14.1595 0.848297 17.3547 0.848297 20.5782C0.848297 23.7875 3.44562 26.2729 7.61029 27.9305C10.241 28.9163 12.9835 29.5726 15.7754 29.8845L15.8053 29.9218L15.8493 29.8838C13.9008 29.5736 11.9966 29.0304 10.1778 28.2657C6.72959 26.7349 4.58008 24.4428 4.58008 21.4828Z" fill="#FFDDB3"/>
<path d="M25.5812 5.91975C25.8006 5.95632 26.0103 6.0108 26.2245 6.05708V3.70083C25.483 3.57947 24.7356 3.49726 23.9854 3.45453V5.71674C24.5205 5.75692 25.0531 5.82468 25.5812 5.91975Z" fill="#F5B57B"/>
<path d="M29.9234 7.38567C31.3604 8.1312 32.6191 9.17864 33.6134 10.4562C34.5456 11.654 35.177 13.0578 35.4547 14.55C36.4134 14.1833 37.3239 13.7013 38.1662 13.1147C38.0454 12.5276 37.8705 11.9529 37.6437 11.3981C37.2237 10.3868 36.6441 9.44938 35.9271 8.62164C34.6926 7.21096 33.1742 6.07667 31.4714 5.29289C30.7414 4.93673 29.9854 4.63658 29.2099 4.39502V7.03488C29.4517 7.14385 29.6928 7.25879 29.9234 7.38567Z" fill="#F5B57B"/>
<path d="M9.95382 13.0162C10.2943 12.096 10.7724 11.2329 11.3719 10.4562C12.3655 9.17889 13.6235 8.13147 15.0596 7.38567C15.2903 7.25879 15.5313 7.14609 15.7732 7.03488V4.39502C14.9977 4.63585 14.2418 4.93526 13.5117 5.29065C11.8096 6.0747 10.2921 7.20898 9.05819 8.6194C8.34122 9.44715 7.76165 10.3845 7.34157 11.3958C7.11464 11.9514 6.93974 12.5268 6.81912 13.1147C7.66201 13.7022 8.5733 14.185 9.53288 14.5522C9.63091 14.0295 9.7717 13.5158 9.95382 13.0162Z" fill="#F5B57B"/>
<path d="M19.4042 5.91975C19.9323 5.82468 20.4649 5.75692 20.9999 5.71674V3.45453C20.2498 3.49726 19.5024 3.57947 18.7609 3.70083V6.05708C18.9751 6.0108 19.1848 5.95632 19.4042 5.91975Z" fill="#F5B57B"/>
<path d="M18.9997 29.2956C19.3063 29.6031 19.4864 30.0145 19.5044 30.4484C19.5224 30.8824 19.3769 31.3073 19.0967 31.6391L17.0293 34.0797L14.2155 31.2659L16.6561 29.1985C16.9683 28.9323 17.3654 28.7867 17.7757 28.788C18.2347 28.7887 18.6748 28.9712 18.9997 29.2956Z" fill="#E3A76F"/>
<path d="M28.3292 29.1985L30.7698 31.2659L27.9561 34.0797L25.8887 31.6391C25.6754 31.387 25.5386 31.0792 25.4945 30.752C25.4503 30.4247 25.5006 30.0917 25.6394 29.792C25.7783 29.4924 25.9998 29.2387 26.278 29.0609C26.5562 28.883 26.8795 28.7883 27.2097 28.788C27.6199 28.7867 28.0171 28.9323 28.3292 29.1985Z" fill="#E3A76F"/>
<path d="M17.0293 34.0798L14.4559 37.125C14.3892 37.2038 14.3069 37.268 14.2141 37.3134C14.1213 37.3588 14.0201 37.3844 13.9169 37.3887C13.8137 37.393 13.7108 37.3758 13.6146 37.3382C13.5184 37.3007 13.431 37.2436 13.358 37.1705L11.1249 34.9374C11.0518 34.8644 10.9947 34.777 10.9571 34.6808C10.9196 34.5846 10.9024 34.4816 10.9067 34.3784C10.911 34.2753 10.9366 34.1741 10.982 34.0813C11.0274 33.9885 11.0916 33.9062 11.1704 33.8395L14.2156 31.2661L17.0293 34.0798Z" fill="#FFDDB3"/>
<path d="M33.8604 34.9374L31.6273 37.1705C31.5543 37.2436 31.467 37.3007 31.3708 37.3382C31.2745 37.3758 31.1716 37.393 31.0684 37.3887C30.9652 37.3844 30.864 37.3588 30.7712 37.3134C30.6785 37.268 30.5961 37.2038 30.5294 37.125L27.956 34.0798L30.7698 31.2661L33.8149 33.8395C33.8938 33.9062 33.9579 33.9885 34.0033 34.0813C34.0487 34.1741 34.0744 34.2753 34.0786 34.3784C34.0829 34.4816 34.0657 34.5846 34.0282 34.6808C33.9906 34.777 33.9335 34.8644 33.8604 34.9374Z" fill="#FFDDB3"/>
<path d="M30.5295 37.1242L27.956 34.0798L27.6903 33.7663L27.1679 33.1461L27.0858 33.0491L26.9738 33.1386C26.5762 33.6774 26.0272 34.0855 25.3968 34.3112C24.4647 34.6384 23.4801 34.7902 22.4927 34.759C21.5053 34.7902 20.5207 34.6384 19.5886 34.3112C18.9593 34.085 18.4114 33.6769 18.0146 33.1386L17.9026 33.0491L17.8205 33.1461L17.2981 33.7663L17.0324 34.0798L14.4589 37.1242C14.3923 37.2031 14.31 37.2673 14.2172 37.3128C14.1245 37.3582 14.0233 37.3839 13.9201 37.3883C13.8169 37.3926 13.714 37.3755 13.6177 37.338C13.5215 37.3005 13.4341 37.2435 13.361 37.1704L14.8537 38.6631C14.9268 38.7362 15.0142 38.7932 15.1104 38.8307C15.2067 38.8682 15.3096 38.8854 15.4128 38.881C15.516 38.8767 15.6172 38.8509 15.7099 38.8055C15.8027 38.76 15.885 38.6958 15.9516 38.6169L18.0414 36.1464C18.7482 37.1242 20.073 37.7444 22.4927 37.7444C24.9124 37.7444 26.2372 37.1242 26.9484 36.1464L29.0382 38.6169C29.1049 38.6958 29.1872 38.76 29.2799 38.8055C29.3727 38.8509 29.4738 38.8767 29.577 38.881C29.6802 38.8854 29.7832 38.8682 29.8794 38.8307C29.9757 38.7932 30.0631 38.7362 30.1361 38.6631L31.6289 37.1704C31.5558 37.2437 31.4683 37.301 31.3719 37.3386C31.2755 37.3763 31.1724 37.3935 31.069 37.3891C30.9656 37.3848 30.8643 37.359 30.7714 37.3133C30.6785 37.2677 30.5961 37.2033 30.5295 37.1242Z" fill="#E6C293"/>
<path d="M18.9997 29.2956C18.6748 28.9712 18.2347 28.7887 17.7757 28.788C17.3654 28.7867 16.9683 28.9323 16.6561 29.1985L14.2155 31.2659L15.0239 32.072L16.6561 30.6912C16.9683 30.425 17.3654 30.2794 17.7757 30.2807C18.2347 30.2814 18.6748 30.4639 18.9997 30.7883C19.1365 30.927 19.2485 31.088 19.3311 31.2644C19.4862 30.9423 19.5376 30.5799 19.4782 30.2273C19.4189 29.8747 19.2517 29.5492 18.9997 29.2956Z" fill="#F5B57B"/>
<path d="M27.2097 30.2807C27.6199 30.2794 28.0171 30.425 28.3292 30.6912L29.9615 32.072L30.7698 31.2659L28.3292 29.1985C28.0171 28.9323 27.6199 28.7867 27.2097 28.788C26.9173 28.7877 26.6297 28.8617 26.3738 29.003C26.1179 29.1443 25.9021 29.3483 25.7467 29.5958C25.5912 29.8434 25.5011 30.1263 25.485 30.4182C25.4688 30.7101 25.5271 31.0013 25.6542 31.2644C25.7368 31.088 25.8489 30.927 25.9856 30.7883C26.3105 30.4639 26.7506 30.2814 27.2097 30.2807Z" fill="#F5B57B"/>
<path d="M15.0239 32.0721L14.2156 31.2661L11.1712 33.8395C11.0923 33.9061 11.028 33.9884 10.9826 34.0812C10.9371 34.1739 10.9114 34.2751 10.907 34.3783C10.9027 34.4815 10.9198 34.5845 10.9573 34.6807C10.9948 34.7769 11.0519 34.8643 11.1249 34.9374L11.36 35.1725L14.2156 32.7588L15.0239 32.0721Z" fill="#FFEBD1"/>
<path d="M30.7697 32.7588L33.6252 35.1725L33.8603 34.9374C33.9334 34.8643 33.9904 34.7769 34.0279 34.6807C34.0654 34.5845 34.0826 34.4815 34.0782 34.3783C34.0739 34.2751 34.0481 34.1739 34.0027 34.0812C33.9572 33.9884 33.893 33.9061 33.8141 33.8395L30.7697 31.2661L29.9614 32.0721L30.7697 32.7588Z" fill="#FFEBD1"/>
<path d="M14.2163 31.2652L14.6775 30.8756L15.8053 29.9203L15.7754 29.8845C13.6867 29.6342 11.6225 29.2098 9.60453 28.6157C9.40899 29.0635 9.11417 29.7516 8.78354 30.5831C10.3578 31.1028 11.9683 31.5052 13.602 31.7869L14.2193 31.2645L14.2163 31.2652Z" fill="#E6C293"/>
<path d="M30.7697 31.2653L31.3869 31.7877C33.0206 31.506 34.6312 31.1036 36.2054 30.5838C35.871 29.7524 35.5762 29.0628 35.3844 28.6165C33.3652 29.2105 31.2998 29.6347 29.2098 29.8845L29.1807 29.9203L30.3084 30.8757L30.7697 31.2653Z" fill="#E6C293"/>
<path d="M6.79903 44.402C6.29415 43.2449 6.04638 41.992 6.07282 40.7299C6.07282 37.8295 7.66033 33.3708 8.77986 30.5847C9.11423 29.7532 9.40904 29.0636 9.60085 28.6173C9.26276 28.515 8.92913 28.409 8.6082 28.2978L8.57237 28.2859C8.24248 28.1717 7.91931 28.053 7.60659 27.9299L7.56554 28.0418C7.56554 28.0418 3.0874 36.2517 3.0874 40.7299C3.05985 42.0066 3.35508 43.2697 3.94571 44.402C4.43987 45.3382 5.18729 46.1167 6.10268 46.6485C6.99789 47.1762 8.01909 47.4522 9.05825 47.4471H9.99866C10.242 47.4471 10.4838 47.4299 10.7264 47.4172C9.97025 47.3498 9.24518 47.0847 8.62387 46.6485C7.82063 46.0817 7.18921 45.3043 6.79903 44.402Z" fill="#FFDDB3"/>
<path d="M38.3058 29.7704L37.6833 28.5389C37.5183 28.2217 37.4198 28.0418 37.4198 28.0418L37.375 27.9299C37.0623 28.053 36.7391 28.1717 36.4093 28.2859L36.3734 28.2978C36.051 28.409 35.7189 28.515 35.3808 28.6173C35.5763 29.0651 35.8711 29.7532 36.2018 30.5847C37.325 33.3701 38.9125 37.8288 38.9125 40.7299C38.9391 41.9923 38.6913 43.2454 38.1863 44.4027C37.7962 45.3051 37.1647 46.0824 36.3615 46.6492C35.7402 47.0854 35.0151 47.3505 34.259 47.418C34.5016 47.4307 34.7434 47.4478 34.9867 47.4478H35.9271C36.9663 47.4529 37.9875 47.177 38.8827 46.6492C39.7981 46.1174 40.5455 45.339 41.0397 44.4027C41.6304 43.2702 41.9256 42.0069 41.898 40.7299C41.898 37.5288 39.6111 32.4237 38.3058 29.7704Z" fill="#FFDDB3"/>
<path d="M37.3093 45.7849C36.8568 45.8953 36.3929 45.9522 35.9271 45.9544H34.9867C33.4343 45.9618 31.8928 45.6939 30.4339 45.1632C27.9123 44.1474 25.2105 43.6547 22.4927 43.7153C19.7748 43.6547 17.073 44.1474 14.5514 45.1632C13.0925 45.6939 11.5511 45.9618 9.99866 45.9544H9.05825C8.59245 45.9522 8.12852 45.8953 7.67599 45.7849C7.95282 46.113 8.2715 46.4033 8.62387 46.6485C9.24517 47.0846 9.97025 47.3498 10.7264 47.4172C12.0324 47.3576 13.322 47.1009 14.5514 46.6559C17.073 45.6401 19.7748 45.1474 22.4927 45.208C25.2105 45.1474 27.9123 45.6401 30.4339 46.6559C31.6633 47.1009 32.9529 47.3576 34.259 47.4172C35.0151 47.3498 35.7402 47.0846 36.3615 46.6485C36.7138 46.4033 37.0325 46.113 37.3093 45.7849Z" fill="#E6C293"/>
<path d="M41.95 19.5518C42.1903 19.3113 42.1139 18.8451 41.7791 18.5106C41.4444 18.1761 40.9782 18.1 40.7378 18.3405C40.4974 18.5811 40.5739 19.0472 40.9087 19.3817C41.2434 19.7162 41.7096 19.7924 41.95 19.5518Z" fill="#F6FAFD"/>
<path d="M40.313 17.9028C40.7915 17.424 40.639 16.4959 39.9724 15.8299C39.3059 15.1638 38.3777 15.012 37.8993 15.4907C37.4209 15.9695 37.5734 16.8976 38.2399 17.5636C38.9064 18.2297 39.8346 18.3815 40.313 17.9028Z" fill="#F6FAFD"/>
<path d="M21.7464 15.3536H23.2391C23.3777 15.3536 23.5136 15.3922 23.6315 15.4651C23.7494 15.538 23.8447 15.6422 23.9066 15.7662C23.9686 15.8902 23.9949 16.029 23.9824 16.167C23.97 16.3051 23.9193 16.4369 23.8362 16.5478L23.0898 17.5405C23.0209 17.6341 22.931 17.7102 22.8273 17.7627C22.7236 17.8152 22.609 17.8425 22.4927 17.8425C22.3765 17.8425 22.2619 17.8152 22.1581 17.7627C22.0544 17.7102 21.9645 17.6341 21.8956 17.5405L21.1493 16.5478C21.0661 16.4369 21.0155 16.3051 21.003 16.167C20.9906 16.029 21.0168 15.8902 21.0788 15.7662C21.1408 15.6422 21.2361 15.538 21.354 15.4651C21.4719 15.3922 21.6078 15.3536 21.7464 15.3536Z" fill="#E3A76F"/>
<path d="M43.8952 45.0541L42.0151 44.0704C42.4442 43.0096 42.6581 41.874 42.6443 40.7297C42.6443 36.7867 39.4477 30.3136 38.399 28.2962C42.5607 26.4512 44.8834 23.7777 44.8834 20.5781C44.8834 17.3232 42.2435 13.8751 38.8035 12.5503C38.7222 12.2226 38.6192 11.9047 38.505 11.5897C38.7289 11.3606 38.9789 11.0994 39.1767 10.8754C41.5106 8.21244 41.8039 4.21794 39.8313 1.96991C39.4045 1.48031 38.8768 1.08887 38.2844 0.822447C37.692 0.556024 37.049 0.420932 36.3995 0.426445C35.5087 0.459319 34.6351 0.681054 33.8365 1.07697C33.0378 1.47288 32.3324 2.03394 31.7669 2.72299C31.3975 3.16766 31.1193 3.68071 30.9481 4.23287C28.2591 3.16304 25.3865 2.63056 22.4927 2.66552C19.5988 2.63056 16.7262 3.16304 14.0372 4.23287C13.8671 3.67983 13.5896 3.16575 13.2207 2.72C12.6549 2.0315 11.9493 1.471 11.1507 1.07561C10.3521 0.680223 9.47859 0.458952 8.58804 0.426445C7.93829 0.420716 7.295 0.555703 6.70236 0.822133C6.10972 1.08856 5.58178 1.48012 5.1548 1.96991C3.17994 4.21794 3.47325 8.21244 5.80636 10.8754C6.0034 11.0994 6.25418 11.3613 6.47809 11.5905C6.36688 11.9054 6.26388 12.2234 6.17954 12.551C2.74182 13.8751 0.101959 17.3232 0.101959 20.5781C0.101959 23.7777 2.42462 26.4512 6.58631 28.2962C5.53768 30.3136 2.34103 36.7867 2.34103 40.7297C2.32721 41.874 2.54109 43.0096 2.97021 44.0704L1.09014 45.0541C0.744638 45.2035 0.461168 45.4673 0.287476 45.8012C0.113785 46.1352 0.0604867 46.5187 0.13656 46.8874C0.212634 47.256 0.41343 47.5871 0.705123 47.825C0.996817 48.0629 1.36158 48.193 1.73797 48.1933C1.78051 48.1933 1.82297 48.1896 1.86485 48.1821L6.04893 47.4619C6.97956 47.9416 8.01123 48.1924 9.05824 48.1933H9.9994C11.6408 48.2037 13.2707 47.9188 14.8112 47.3522C17.2514 46.3737 19.8642 45.8982 22.4927 45.9542C25.1212 45.8982 27.7339 46.3737 30.1742 47.3522C31.7147 47.9188 33.3445 48.2037 34.9859 48.1933H35.9271C36.9741 48.1924 38.0058 47.9416 38.9364 47.4619L43.1205 48.1821C43.1624 48.1896 43.2048 48.1933 43.2474 48.1933C43.6237 48.193 43.9885 48.0629 44.2802 47.825C44.5719 47.5871 44.7727 47.256 44.8488 46.8874C44.9248 46.5187 44.8715 46.1352 44.6979 45.8012C44.5242 45.4673 44.2407 45.2035 43.8952 45.0541ZM29.6577 11.9203C29.5009 11.7727 29.3051 11.6731 29.0934 11.6334C28.8817 11.5937 28.6631 11.6156 28.4635 11.6964C28.1393 11.8174 27.8449 12.0066 27.6002 12.2512C27.3556 12.4959 27.1664 12.7903 27.0454 13.1145C27.0276 13.178 27.0139 13.2426 27.0044 13.3078C25.588 12.6661 24.0474 12.3453 22.4927 12.3682C20.9372 12.3449 19.3957 12.6658 17.9787 13.3078C17.9699 13.2426 17.9569 13.1781 17.9399 13.1145C17.819 12.7903 17.6298 12.4959 17.3851 12.2512C17.1404 12.0066 16.846 11.8174 16.5218 11.6964C16.3234 11.6067 16.1023 11.5796 15.888 11.6187C15.6738 11.6578 15.4765 11.7612 15.3225 11.9152C15.1685 12.0692 15.0651 12.2665 15.026 12.4807C14.9869 12.695 15.014 12.9161 15.1037 13.1145C15.2198 13.4403 15.4093 13.735 15.6575 13.9758C15.743 14.0553 15.8337 14.1289 15.9292 14.196C15.1628 14.4757 14.3522 14.615 13.5364 14.6072C11.4555 14.538 9.43158 13.9103 7.67673 12.7899C8.54624 9.49618 11.2331 6.90557 15.0291 5.45465V7.14366C15.0291 7.7375 15.265 8.30702 15.6849 8.72692C16.1048 9.14683 16.6743 9.38273 17.2682 9.38273C17.862 9.38273 18.4315 9.14683 18.8514 8.72692C19.2713 8.30702 19.5072 7.7375 19.5072 7.14366V4.34855C19.752 4.31721 20.0036 4.29556 20.2536 4.27392V9.38273C20.2536 9.97657 20.4895 10.5461 20.9094 10.966C21.3293 11.3859 21.8988 11.6218 22.4927 11.6218C23.0865 11.6218 23.656 11.3859 24.0759 10.966C24.4958 10.5461 24.7317 9.97657 24.7317 9.38273V4.27242C24.9818 4.29556 25.2333 4.3172 25.4781 4.34706V7.14366C25.4781 7.7375 25.714 8.30702 26.1339 8.72692C26.5538 9.14683 27.1233 9.38273 27.7172 9.38273C28.311 9.38273 28.8805 9.14683 29.3004 8.72692C29.7203 8.30702 29.9562 7.7375 29.9562 7.14366V5.45465C33.7522 6.90632 36.4398 9.49618 37.3086 12.7913C35.5549 13.914 33.5302 14.5415 31.4489 14.6072C30.6322 14.6156 29.8206 14.4765 29.0531 14.1967C29.1486 14.1296 29.2394 14.0561 29.3248 13.9766C29.5742 13.7358 29.7647 13.4408 29.8816 13.1145C29.9623 12.9149 29.984 12.6963 29.9443 12.4847C29.9047 12.273 29.8052 12.0772 29.6577 11.9203ZM16.5218 4.95982C17.0062 4.82249 17.5025 4.69934 18.0145 4.59634V7.14366C18.0145 7.34161 17.9359 7.53145 17.7959 7.67141C17.656 7.81138 17.4661 7.89002 17.2682 7.89002C17.0702 7.89002 16.8804 7.81138 16.7404 7.67141C16.6004 7.53145 16.5218 7.34161 16.5218 7.14366V4.95982ZM26.9708 4.59634C27.4828 4.69934 27.9791 4.82025 28.4635 4.95982V7.14366C28.4635 7.34161 28.3849 7.53145 28.2449 7.67141C28.1049 7.81138 27.9151 7.89002 27.7172 7.89002C27.5192 7.89002 27.3294 7.81138 27.1894 7.67141C27.0494 7.53145 26.9708 7.34161 26.9708 7.14366V4.59634ZM38.0557 9.89548C37.9938 9.96638 37.9228 10.0448 37.8504 10.1194C37.5208 9.50331 37.134 8.91957 36.6951 8.3759C36.6862 7.55535 36.9742 6.75924 37.5059 6.13424C38.0377 5.50924 38.7773 5.09745 39.5887 4.97475C39.6989 5.85626 39.619 6.75114 39.3546 7.59924C39.0902 8.44734 38.6473 9.22902 38.0557 9.89175V9.89548ZM32.8872 3.70668C33.3131 3.17788 33.8462 2.74522 34.4513 2.43713C35.0564 2.12905 35.7198 1.95252 36.398 1.91916C36.836 1.9118 37.2703 2.00077 37.6701 2.17978C38.0699 2.3588 38.4255 2.62348 38.7117 2.9551C38.8661 3.13791 39.0014 3.33597 39.1155 3.54622C38.2304 3.70847 37.41 4.11996 36.7507 4.73236C36.0913 5.34475 35.6205 6.1326 35.3934 7.00335C34.4642 6.16719 33.4312 5.45404 32.3199 4.88145C32.4232 4.45394 32.6166 4.05342 32.8872 3.70668ZM23.239 4.17988V9.38273C23.239 9.58068 23.1604 9.77052 23.0204 9.91049C22.8804 10.0505 22.6906 10.1291 22.4927 10.1291C22.2947 10.1291 22.1049 10.0505 21.9649 9.91049C21.8249 9.77052 21.7463 9.58068 21.7463 9.38273V4.17988C21.9948 4.17241 22.2404 4.15823 22.4927 4.15823C22.7449 4.15823 22.9905 4.17241 23.239 4.17988ZM8.5858 1.91916C9.26348 1.95294 9.92636 2.12966 10.5309 2.43773C11.1355 2.7458 11.6681 3.17825 12.0937 3.70668C12.3645 4.05335 12.5582 4.45388 12.6617 4.88145C11.5504 5.45404 10.5174 6.16719 9.58815 7.00335C9.36143 6.1332 8.89125 5.34577 8.23278 4.73343C7.5743 4.12109 6.75484 3.70924 5.87055 3.54622C5.98471 3.33597 6.12 3.13791 6.27433 2.9551C6.56011 2.62353 6.9153 2.35886 7.31475 2.17983C7.7142 2.00081 8.14813 1.91182 8.5858 1.91916ZM6.92889 9.891C6.33731 9.22813 5.8945 8.4463 5.6302 7.59806C5.36591 6.74982 5.28626 5.85483 5.39661 4.97325C6.20798 5.09596 6.94767 5.50775 7.47941 6.13275C8.01114 6.75775 8.29911 7.55386 8.29024 8.3744C7.85134 8.91808 7.46452 9.50181 7.13488 10.1179C7.06174 10.0395 6.99158 9.96265 6.92889 9.891ZM1.59467 20.5781C1.59467 17.9524 3.8636 15.055 6.71617 13.9497C8.74498 15.2876 11.1071 16.0323 13.5364 16.0999C15.0539 16.0864 16.5456 15.7048 17.8832 14.9879C19.3068 14.2474 20.8879 13.8609 22.4927 13.8609C24.0974 13.8609 25.6785 14.2474 27.1022 14.9879C28.4398 15.7048 29.9314 16.0864 31.4489 16.0999C33.8782 16.0323 36.2403 15.2876 38.2692 13.9497C41.1217 15.055 43.3907 17.9524 43.3907 20.5781C43.3907 24.7831 38.1535 27.9603 29.3733 29.1045L28.8098 28.6283C28.6454 28.4928 28.4637 28.3799 28.2695 28.2924C27.8552 26.0534 26.6745 22.3335 24.8997 20.3811C25.2939 20.2047 25.6287 19.9181 25.8638 19.5558C26.0988 19.1935 26.2241 18.7709 26.2244 18.339H24.7317C24.7183 18.524 24.6366 18.6973 24.5023 18.8253C24.3681 18.9532 24.1911 19.0266 24.0057 19.0312C23.8203 19.0358 23.6399 18.9711 23.4995 18.85C23.3592 18.7288 23.269 18.5597 23.2465 18.3756C23.4172 18.2775 23.5669 18.1466 23.6868 17.9905L24.4332 16.9956C24.5995 16.7738 24.7008 16.5101 24.7257 16.234C24.7506 15.9579 24.6981 15.6803 24.5741 15.4324C24.4502 15.1844 24.2596 14.9759 24.0238 14.8302C23.788 14.6844 23.5162 14.6072 23.239 14.6072H21.7463C21.4691 14.6072 21.1974 14.6844 20.9615 14.8302C20.7257 14.9759 20.5352 15.1844 20.4112 15.4324C20.2872 15.6803 20.2347 15.9579 20.2596 16.234C20.2845 16.5101 20.3858 16.7738 20.5521 16.9956L21.2985 17.9905C21.4183 18.1468 21.568 18.2777 21.7388 18.3756C21.7164 18.5597 21.6261 18.7288 21.4858 18.85C21.3454 18.9711 21.165 19.0358 20.9796 19.0312C20.7942 19.0266 20.6172 18.9532 20.483 18.8253C20.3488 18.6973 20.267 18.524 20.2536 18.339H18.7609C18.7618 18.7704 18.8873 19.1923 19.1224 19.554C19.3574 19.9158 19.6919 20.2019 20.0857 20.3781C18.3108 22.3335 17.1293 26.0504 16.7159 28.2895C16.5215 28.3767 16.3398 28.4897 16.1755 28.6253L15.612 29.1015C6.83186 27.9603 1.59467 24.7831 1.59467 20.5781ZM17.1398 29.7672C17.3285 29.6082 17.57 29.5258 17.8166 29.5363C18.0632 29.5468 18.2968 29.6495 18.4713 29.824C18.6458 29.9985 18.7485 30.2321 18.759 30.4787C18.7695 30.7252 18.687 30.9668 18.528 31.1555L16.9831 32.9818L15.3135 31.3122L17.1398 29.7672ZM19.5281 28.7679C19.1853 28.4266 18.7489 28.1946 18.2743 28.1014C18.5133 26.9941 18.8394 25.9075 19.2497 24.8517C19.0311 26.131 18.9199 27.3087 18.8698 27.9864L20.3588 28.0954C20.6096 24.6845 21.2171 22.5724 21.7463 21.4864V33.9879C20.7143 34.0088 19.7074 33.6685 18.8997 33.0258L19.667 32.119C20.0652 31.6434 20.2716 31.0363 20.2459 30.4166C20.2203 29.7968 19.9643 29.2089 19.5281 28.7679ZM22.4927 17.0948L21.7411 16.0999H23.239L22.4927 17.0948ZM23.239 21.4872C23.7682 22.5739 24.3757 24.6853 24.6265 28.0961L26.1155 27.9872C26.0655 27.3087 25.9543 26.131 25.7356 24.8525C26.1457 25.9084 26.4719 26.9949 26.7111 28.1021C26.2369 28.1957 25.801 28.4274 25.4579 28.7679C25.0212 29.2089 24.7649 29.797 24.7391 30.4172C24.7133 31.0373 24.9198 31.6447 25.3184 32.1205L26.0856 33.0281C25.2777 33.6702 24.2708 34.0099 23.239 33.9886V21.4872ZM26.4573 31.1555C26.2983 30.9668 26.2159 30.7252 26.2264 30.4787C26.2369 30.2321 26.3395 29.9985 26.514 29.824C26.6885 29.6495 26.9222 29.5468 27.1687 29.5363C27.4153 29.5258 27.6568 29.6082 27.8455 29.7672L29.6719 31.3122L28.0023 32.9818L26.4573 31.1555ZM1.70215 46.6961C1.67279 46.6885 1.64659 46.6718 1.62729 46.6483C1.60799 46.6249 1.59657 46.596 1.59467 46.5657C1.59276 46.5355 1.60047 46.5054 1.61669 46.4797C1.63291 46.4541 1.65681 46.4342 1.68498 46.4229C1.70848 46.4139 1.73141 46.4034 1.75365 46.3916L3.68447 45.381C3.89408 45.6843 4.12876 45.9694 4.38605 46.2334L1.70215 46.6961ZM34.9897 46.7006C33.527 46.7109 32.0743 46.4581 30.7011 45.9542C28.0935 44.9087 25.3014 44.4009 22.4927 44.4615C19.6851 44.4014 16.8944 44.9092 14.288 45.9542C12.9147 46.4581 11.4621 46.7109 9.9994 46.7006H9.05824C6.54153 46.7006 3.83374 44.8347 3.83374 40.7297C3.83374 37.0726 7.06398 30.6144 7.97976 28.8552C9.96315 29.5603 12.0092 30.0749 14.0902 30.3919L10.0688 33.7946L11.0331 34.9343L14.1678 32.2795L16.0135 34.1252L13.3587 37.2599L14.4984 38.2242L17.9399 34.1618C18.9191 35.0574 20.4133 35.5052 22.4927 35.5052C24.572 35.5052 26.0662 35.0574 27.0454 34.1618L30.4839 38.2265L31.6236 37.2622L28.9688 34.1275L30.8145 32.2817L33.9492 34.9365L34.9135 33.7968L30.8922 30.3942C32.9731 30.0771 35.0192 29.5625 37.0026 28.8574C37.9221 30.6136 41.1516 37.0726 41.1516 40.7297C41.1516 44.8347 38.4438 46.7006 35.9271 46.7006H34.9897ZM43.2869 46.6961L40.6 46.2334C40.8573 45.9694 41.092 45.6843 41.3016 45.381L43.2347 46.3916C43.2569 46.4034 43.2798 46.4139 43.3033 46.4229C43.3315 46.4342 43.3554 46.4541 43.3716 46.4797C43.3878 46.5054 43.3955 46.5355 43.3937 46.5657C43.3917 46.596 43.3803 46.6249 43.361 46.6483C43.3417 46.6718 43.3155 46.6885 43.2862 46.6961H43.2869Z" fill="black"/>
</svg>
