<svg width="24" height="24" viewBox="0 0 24 24" fill="none" xmlns="http://www.w3.org/2000/svg">
<path d="M4.25895 16.5936C3.14076 14.7086 2.74916 12.4802 3.15768 10.3269C3.56621 8.17365 4.74675 6.24356 6.47764 4.89909C8.20853 3.55462 10.3707 2.88826 12.5581 3.02514C14.7455 3.16202 16.8078 4.09273 18.3575 5.6425C19.9073 7.19226 20.838 9.25448 20.9749 11.4419C21.1118 13.6293 20.4455 15.7915 19.101 17.5224C17.7565 19.2533 15.8264 20.4338 13.6732 20.8424C11.5199 21.2509 9.29149 20.8593 7.40649 19.7411L7.40651 19.741L4.29808 20.6292C4.16947 20.6659 4.03338 20.6676 3.90391 20.634C3.77443 20.6005 3.65628 20.5329 3.5617 20.4384C3.46713 20.3438 3.39956 20.2256 3.36601 20.0961C3.33246 19.9667 3.33415 19.8306 3.37089 19.702L4.25901 16.5935L4.25895 16.5936Z" stroke="#A2A2A2" stroke-width="2" stroke-linecap="round" stroke-linejoin="round"/>
<path d="M7.49988 13.1288C8.1212 13.1288 8.62488 12.6251 8.62488 12.0038C8.62488 11.3825 8.1212 10.8788 7.49988 10.8788C6.87856 10.8788 6.37488 11.3825 6.37488 12.0038C6.37488 12.6251 6.87856 13.1288 7.49988 13.1288Z" fill="#A2A2A2"/>
<path d="M12 13.1288C12.6213 13.1288 13.125 12.6251 13.125 12.0038C13.125 11.3825 12.6213 10.8788 12 10.8788C11.3787 10.8788 10.875 11.3825 10.875 12.0038C10.875 12.6251 11.3787 13.1288 12 13.1288Z" fill="#A2A2A2"/>
<path d="M16.5001 13.1288C17.1214 13.1288 17.6251 12.6251 17.6251 12.0038C17.6251 11.3825 17.1214 10.8788 16.5001 10.8788C15.8788 10.8788 15.3751 11.3825 15.3751 12.0038C15.3751 12.6251 15.8788 13.1288 16.5001 13.1288Z" fill="#A2A2A2"/>
</svg>
