<svg width="35" height="36" viewBox="0 0 35 36" fill="none" xmlns="http://www.w3.org/2000/svg">
<path d="M31.4552 29.7917L26.1809 24.5601C28.2282 22.0074 29.2196 18.7673 28.9514 15.506C28.6831 12.2448 27.1755 9.21022 24.7386 7.02637C22.3017 4.84252 19.1207 3.67536 15.8496 3.76486C12.5786 3.85437 9.46615 5.19375 7.15231 7.50759C4.83846 9.82144 3.49908 12.9339 3.40958 16.2049C3.32007 19.476 4.48724 22.657 6.67108 25.0939C8.85493 27.5308 11.8895 29.0384 15.1507 29.3067C18.412 29.5749 21.6521 28.5835 24.2048 26.5361L29.4364 31.7678C29.5686 31.9011 29.7258 32.0068 29.8991 32.079C30.0723 32.1512 30.2581 32.1883 30.4458 32.1883C30.6335 32.1883 30.8193 32.1512 30.9925 32.079C31.1658 32.0068 31.323 31.9011 31.4552 31.7678C31.7114 31.5027 31.8546 31.1485 31.8546 30.7798C31.8546 30.4111 31.7114 30.0568 31.4552 29.7917ZM16.2293 26.5361C14.2611 26.5361 12.3371 25.9525 10.7006 24.859C9.06403 23.7655 7.78852 22.2113 7.03531 20.3929C6.2821 18.5745 6.08503 16.5736 6.46901 14.6432C6.85299 12.7128 7.80078 10.9396 9.19253 9.54782C10.5843 8.15607 12.3575 7.20828 14.2879 6.8243C16.2183 6.44031 18.2192 6.63739 20.0376 7.39059C21.856 8.1438 23.4102 9.41932 24.5037 11.0558C25.5972 12.6924 26.1809 14.6164 26.1809 16.5846C26.1809 19.2239 25.1324 21.7551 23.2661 23.6214C21.3998 25.4877 18.8686 26.5361 16.2293 26.5361Z" fill="#A2A2A2"/>
</svg>
