<svg width="42" height="42" viewBox="0 0 42 42" fill="none" xmlns="http://www.w3.org/2000/svg">
<g clip-path="url(#clip0)">
<path d="M34.9741 38.1839C35.9163 38.1839 36.6801 37.4201 36.6801 36.4779C36.6801 35.5358 35.9163 34.772 34.9741 34.772C34.0319 34.772 33.2681 35.5358 33.2681 36.4779C33.2681 37.4201 34.0319 38.1839 34.9741 38.1839Z" stroke="#A2A2A2" stroke-width="3.41195" stroke-linecap="round" stroke-linejoin="round"/>
<path d="M16.2083 38.1839C17.1505 38.1839 17.9143 37.4201 17.9143 36.4779C17.9143 35.5358 17.1505 34.772 16.2083 34.772C15.2662 34.772 14.5024 35.5358 14.5024 36.4779C14.5024 37.4201 15.2662 38.1839 16.2083 38.1839Z" stroke="#A2A2A2" stroke-width="3.41195" stroke-linecap="round" stroke-linejoin="round"/>
<path d="M2.56053 4.06433H9.38444L13.9565 25.384C14.1125 26.117 14.5397 26.7755 15.1635 27.2441C15.7873 27.7128 16.5678 27.9617 17.3684 27.9474H33.9505C34.7511 27.9617 35.5316 27.7128 36.1554 27.2441C36.7792 26.7755 37.2065 26.117 37.3625 25.384L40.092 12.0254H11.0904" stroke="#A2A2A2" stroke-width="3.41195" stroke-linecap="round" stroke-linejoin="round"/>
</g>
<defs>
<clipPath id="clip0">
<rect width="40.9435" height="40.9435" fill="white" transform="translate(0.854553 0.652405)"/>
</clipPath>
</defs>
</svg>
